<ttFont>
          <CharString index="0">
            rmoveto
            -33 27 -28 34 33 27 28 33 33 -27 27 -33 -34 -27 -27 -33 vhcurveto
            -179 hmoveto
            -33 27 -28 33 33 28 28 33 33 -28 27 -33 -33 -27 -27 -33 vhcurveto
            return
          </CharString>
          <CharString index="1">
            rmoveto
            22 10 12 10 24 vvcurveto
            20 -14 13 -20 -18 -13 -9 -18 -15 vhcurveto
            -26 -31 -33 -45 -82 -43 7 -15 rcurveline
            return
          </CharString>
          <CharString index="2">
            276 -22 callgsubr
            -146 -77 -104 -146 -144 68 -106 144 102 64 68 94 21 -32 callsubr
            -73 -18 -46 -63 -82 hhcurveto
            -100 -38 82 100 hvcurveto
            29 47 vlineto
            123 132 10 123 91 -85 37 -91 hvcurveto
            -126 -243 rmoveto
            28 vlineto
            92 25 106 92 63 25 -48 -63 -99 -71 -16 -99 vhcurveto
            return
          </CharString>
          <CharString index="3">
            116 -31 callsubr
            -326 vlineto
            -191 54 -137 191 186 15 162 186 vhcurveto
            179 vlineto
            97 34 30 97 vhcurveto
            16 -286 -16 7 vlineto
            97 31 -30 -97 hvcurveto
            -214 vlineto
            -142 -19 -2 callgsubr
            -156 -5 139 166 vhcurveto
            326 83 16 -260 -16 vlineto
            return
          </CharString>
          <CharString index="4">
            17 -20 28 -32 callgsubr
            hstemhm
            106 89 211 89 hintmask 01111000
            406 445 rmoveto
            -181 vlineto
            hintmask 10111000
            -114 -23 -142 -114 -74 0 110 81 vhcurveto
            274 vlineto
            -99 callgsubr
            -260 hlineto
            -122 22 -83 122 67 59 43 64 22 vhcurveto
            6 hlineto
            hintmask 01111000
            -87 157 15 -66 458 vlineto
            -57 callsubr
            return
          </CharString>
          <CharString index="5">
            52 -37 32 -50 -90 callgsubr
            vhcurveto
            -84 callgsubr
            29 29 -24 -41 -47 -38 -40 -41 -23 vhcurveto
            9 -15 rlineto
            46 26 42 44 55 vvcurveto
            return
          </CharString>
          <CharString index="6">
            -73 -25 -27 -49 -77 hhcurveto
            -16 296 16 -17 vlineto
            -68 -69 1 68 18 3 23 8 22 hvcurveto
            32 94 rlineto
            191 hlineto
            -93 284 rmoveto
            6 hlineto
            82 -268 rlineto
            -180 hlineto
            return
          </CharString>
          <CharString index="7">
            -33 25 -25 33 33 26 25 33 33 -26 26 -33 -33 -25 -26 -33 vhcurveto
            return
          </CharString>
          <CharString index="8">
            -235 18 32 107 523 15 hstemhm
            1 18 21 88 -15 89 hintmask 11110100
            202 473 -94 callgsubr
            -405 hlineto
            -70 53 -22 -70 vvcurveto
            -56 -20 -39 -56 -39 -32 25 36 5 0 6 2 5 vhcurveto
            6 2 3 3 6 hhcurveto
            5 3 -4 -4 hvcurveto
            -4 -1 -4 -3 vvcurveto
            hintmask 11111000
            -19 14 -16 27 30 18 25 27 32 -24 23 -34 vhcurveto
            hintmask 11110100
            -40 -29 -37 -39 -47 38 -34 51 70 42 55 127 hvcurveto
            return
          </CharString>
          <CharString index="9">
            -21 callsubr
            114 23 142 114 81 0 -110 -81 vhcurveto
            -246 -62 callsubr
            124 -27 81 -124 -67 -59 -43 -64 -22 vhcurveto
            -6 return
          </CharString>
          <CharString index="10">
            -21 50 224 174 -148 148 41 20 hstem
            11 55 -24 158 118 189 vstem
            return
          </CharString>
          <CharString index="11">
            197 473 rmoveto
            -10 -47 -44 -3 -48 hhcurveto
            -21 -68 callsubr
            hlineto
            return
          </CharString>
          <CharString index="12">
            rmoveto
            -100 callsubr
            return
          </CharString>
          <CharString index="13">
            -68 -71 -68 callsubr
            430 92 15 -93 vlineto
            -7 57 -45 15 65 vvcurveto
            return
          </CharString>
          <CharString index="14">
            rmoveto
            -50 -26 -50 -60 hvcurveto
            15 hlineto
            31 13 20 37 vhcurveto
            41 62 -52 49 hhcurveto
            return
          </CharString>
          <CharString index="15">
            -90 callsubr
            -66 return
          </CharString>
          <CharString index="16">
            80 -7 127 -120 16 -2 -21 641 -12 callgsubr
            20 372 20 hintmask 01011100
            537 507 rmoveto
            97 34 30 97 vhcurveto
            16 -286 -16 7 vlineto
            97 31 -30 -97 hvcurveto
            hintmask 10011100
            -77 callgsubr
            -446 vlineto
            hintmask 01011100
            -74 callsubr
            405 4 vlineto
            264 -454 rlineto
            hintmask 00111100
            -33 callsubr
            return
          </CharString>
          <CharString index="17">
            -69 callsubr
            15 return
          </CharString>
          <CharString index="18">
            -10 -48 -44 -3 -49 12 callgsubr
            return
          </CharString>
          <CharString index="19">
            88 -18 19 702 19 hstemhm
            -16 222 -184 222 224 222 -184 222 hintmask 11010100
            return
          </CharString>
          <CharString index="20">
            404 rmoveto
            14 callsubr
            -4 -19 callgsubr
            6 -1 vhcurveto
            14 -3 -15 12 -22 hhcurveto
            -30 -18 -25 -29 -30 26 -23 30 40 29 32 39 53 -35 33 -49 -66 -37 -50 -61 -23 hvcurveto
            -6 hlineto
            return
          </CharString>
          <CharString index="21">
            -93 callgsubr
            14 -14 3 hvcurveto
            -84 callgsubr
            vhcurveto
            return
          </CharString>
          <CharString index="22">
            -57 -13 -21 -23 -15 hhcurveto
            -16 -6 14 49 hvcurveto
            46 vlineto
            131 -22 63 -129 vhcurveto
            5 vlineto
            return
          </CharString>
          <CharString index="23">
            -98 -35 51 32 -1 callsubr
            4 5 3 -3 -6 1 hvcurveto
            -14 3 15 -12 22 hhcurveto
            30 18 25 29 30 -26 23 -30 -40 -29 -31 -40 -82 82 -31 86 106 87 42 106 hvcurveto
            return
          </CharString>
          <CharString index="24">
            603 -106 callsubr
            return
          </CharString>
          <CharString index="25">
            -73 -16 260 16 -83 return
          </CharString>
          <CharString index="26">
            84 38 137 84 94 10 -125 -94 -96 -6 -129 -96 -92 -32 95 92 vhcurveto
            return
          </CharString>
          <CharString index="27">
            rmoveto
            22 19 20 22 23 19 -20 -22 -23 -19 -20 -23 -22 -19 20 23 vhcurveto
            -18 hmoveto
            -34 26 -27 33 34 26 27 34 33 -26 27 -34 -33 -26 -27 -33 vhcurveto
            return
          </CharString>
          <CharString index="28">
            623 118 rmoveto
            -75 callsubr
            53 -172 -113 -344 rlineto
            -75 callsubr
            202 -654 -57 callgsubr
            130 389 139 -450 -57 callgsubr
            return
          </CharString>
          <CharString index="29">
            -43 6 hvcurveto
            -5 1 -4 -5 -6 hhcurveto
            -5 4 callgsubr
            -2 hvcurveto
            16 -6 -15 15 -26 hhcurveto
            -28 -25 -22 -35 return
          </CharString>
          <CharString index="30">
            128 179 -137 120 -170 -170 -133 -137 -170 -177 123 -123 170 53 50 13 24 43 vhcurveto
            -11 20 rlineto
            -22 -40 -47 -12 -48 hhcurveto
            -160 -110 117 160 156 124 128 156 156 128 -111 -165 -123 return
          </CharString>
          <CharString index="31">
            -105 callgsubr
            endchar
          </CharString>
          <CharString index="32">
            -6 hlineto
            -150 516 rlineto
            74 16 -260 -16 71 hlineto
            return
          </CharString>
          <CharString index="33">
            -97 -34 -30 -97 vhcurveto
            -16 286 16 -7 vlineto
            -97 -31 30 97 hvcurveto
            return
          </CharString>
          <CharString index="34">
            -11 5 -4 -5 vvcurveto
            -5 -4 -3 -5 return
          </CharString>
          <CharString index="35">
            -15 71 -318 hlineto
            -86 8 -61 86 60 43 57 56 22 vhcurveto
            -16 6 rlineto
            -35 -15 -34 -57 -38 hhcurveto
            -27 0 30 68 hvcurveto
            return
          </CharString>
          <CharString index="36">
            20 callsubr
            -13 callsubr
            -142 627 hintmask 11101000
            return
          </CharString>
          <CharString index="37">
            0 19 337 19 310 19 hstem
            65 204 return
          </CharString>
          <CharString index="38">
            -66 -46 callgsubr
            return
          </CharString>
          <CharString index="39">
            -15 71 -430 -92 callsubr
            return
          </CharString>
          <CharString index="40">
            -48 4 -49 -71 hhcurveto
            -32 -21 22 24 hvcurveto
            73 50 29 48 vvcurveto
            33 -26 25 -33 -33 -26 -25 -33 vhcurveto
            -48 50 -29 -73 vvcurveto
            -24 -21 -22 -32 vhcurveto
            -71 4 49 -48 hhcurveto
            -33 -26 -26 -33 -32 26 -26 33 hvcurveto
            return
          </CharString>
          <CharString index="41">
            39 31 -23 25 -31 -29 -24 -19 -29 -22 12 return
          </CharString>
          <CharString index="42">
            17 103 15 2 18 hstemhm
            109 89 -21 17 95 18 return
          </CharString>
          <CharString index="43">
            684 -21 22 19 hstem
            -75 635 -96 96 vstem
            292 118 rmoveto
            -75 callsubr
            202 -654 -57 callgsubr
            return
          </CharString>
          <CharString index="44">
            -49 callsubr
            11 25 21 16 hvcurveto
            return
          </CharString>
          <CharString index="45">
            -92 callsubr
            260 vlineto
            return
          </CharString>
          <CharString index="46">
            -22 callgsubr
            -86 -69 -40 -81 -40 29 -29 40 30 27 22 34 29 -19 22 -30 -26 -11 -15 -13 -3 hvcurveto
            -71 callgsubr
            -5 -4 4 5 38 33 53 87 70 38 -49 -70 return
          </CharString>
          <CharString index="47">
            104 vlineto
            -10 -47 -46 -3 -48 12 callgsubr
            -430 -66 -15 228 15 -73 186 hlineto
            return
          </CharString>
          <CharString index="48">
            -81 callsubr
            endchar
          </CharString>
          <CharString index="49">
            rmoveto
            -45 36 -36 45 46 36 36 45 46 -36 36 -46 -45 -36 -36 -46 vhcurveto
            21 hmoveto
            34 27 26 33 34 26 -26 -34 -33 -26 -27 -34 -33 -27 27 33 vhcurveto
            return
          </CharString>
          <CharString index="50">
            -100 callgsubr
            hlineto
            return
          </CharString>
          <CharString index="51">
            -36 -20 17 466 17 hstem
            53 97 246 97 vstem
            return
          </CharString>
          <CharString index="52">
            -89 -83 -49 -89 hvcurveto
            -160 281 32 -120 vvcurveto
            -76 -69 -18 -76 vhcurveto
            return
          </CharString>
          <CharString index="53">
            39 -28 32 -39 -32 -25 -24 -31 -31 19 -22 30 22 12 13 14 3 vhcurveto
            6 1 3 3 5 hhcurveto
            6 3 -4 -6 -29 -25 -29 -41 hvcurveto
            return
          </CharString>
          <CharString index="54">
            122 111 111 12 return
          </CharString>
          <CharString index="55">
            703 -94 callgsubr
            -38 callsubr
            return
          </CharString>
          <CharString index="56">
            -89 callsubr
            -430 3 callgsubr
            return
          </CharString>
          <CharString index="57">
            -2 callsubr
            36 22 27 26 20 -12 19 -26 7 vhcurveto
            -5 1 -2 4 4 vvcurveto
            -20 callgsubr
            21 36 -17 -47 vhcurveto
            return
          </CharString>
          <CharString index="58">
            -73 callgsubr
            12 return
          </CharString>
          <CharString index="59">
            519 -101 callgsubr
            return
          </CharString>
          <CharString index="60">
            -28 -26 -15 -15 -16 -6 hvcurveto
            -5 -2 -3 -3 -5 0 callsubr
            return
          </CharString>
          <CharString index="61">
            rmoveto
            -474 -21 474 hlineto
            endchar
          </CharString>
          <CharString index="62">
            3 vhcurveto
            -26 callsubr
            return
          </CharString>
          <CharString index="63">
            -215 46 -46 119 -98 -21 return
          </CharString>
          <CharString index="64">
            10 1 10 3 11 return
          </CharString>
          <CharString index="65">
            0 19 666 19 hstem
            -36 19 190 204 190 19 cntrmask 00111000
            143 hmoveto
            260 16 -83 return
          </CharString>
          <CharString index="66">
            160 -281 -32 120 vvcurveto
            60 64 24 60 vhcurveto
            return
          </CharString>
          <CharString index="67">
            113 55 -88 -112 19 hvcurveto
            16 219 -12 hlineto
            -22 -3 -8 -12 -23 -30 -58 34 -78 hhcurveto
            return
          </CharString>
          <CharString index="68">
            -84 -38 -137 -84 -94 -10 125 94 96 6 129 96 92 32 -95 -92 vhcurveto
            endchar
          </CharString>
          <CharString index="69">
            -660 -66 -15 return
          </CharString>
          <CharString index="70">
            -18 2 rlineto
            return
          </CharString>
          <CharString index="71">
            68 134 hvcurveto
            667 73 16 -260 -16 83 -574 vlineto
            -80 61 -32 -70 vvcurveto
            -52 return
          </CharString>
          <CharString index="72">
            671 -93 callsubr
            return
          </CharString>
          <CharString index="73">
            hlineto
            -52 -27 -39 -45 -60 vvcurveto
            -42 26 -41 49 return
          </CharString>
          <CharString index="74">
            -69 40 20 -32 48 hhcurveto
            16 hlineto
            return
          </CharString>
          <CharString index="75">
            hvcurveto
            -37 callsubr
            return
          </CharString>
          <CharString index="76">
            634 rmoveto
            return
          </CharString>
          <CharString index="77">
            469 17 callgsubr
            -34 hlineto
            -6 -6 0 -1 -5 hvcurveto
            return
          </CharString>
          <CharString index="78">
            -100 callsubr
            endchar
          </CharString>
          <CharString index="79">
            -16 6 15 -15 26 hhcurveto
            28 24 20 35 44 -34 23 -32 -37 -35 -31 -47 return
          </CharString>
          <CharString index="80">
            105 30 158 104 35 30 -25 -35 vhcurveto
            return
          </CharString>
          <CharString index="81">
            -6 1 14 callgsubr
            return
          </CharString>
          <CharString index="82">
            34 31 23 42 return
          </CharString>
          <CharString index="83">
            152 126 43 152 108 -87 47 -108 2 hvcurveto
            6 vlineto
            return
          </CharString>
          <CharString index="84">
            -181 90 -167 180 return
          </CharString>
          <CharString index="85">
            -40 -29 -37 -39 -47 38 -34 51 70 42 55 127 hvcurveto
            endchar
          </CharString>
          <CharString index="86">
            -66 181 hlineto
            return
          </CharString>
          <CharString index="87">
            125 104 return
          </CharString>
          <CharString index="88">
            hlineto
            hintmask 10110000
            -51 -150 rlineto
            22 hlineto
            hintmask 01110000
            51 150 rlineto
            return
          </CharString>
          <CharString index="89">
            vlineto
            -16 callsubr
            return
          </CharString>
          <CharString index="90">
            -3 -18 19 20 -21 703 19 -18 -20 hstem
            -7 222 return
          </CharString>
          <CharString index="91">
            18 callgsubr
            -28 -36 -193 hhcurveto
            return
          </CharString>
          <CharString index="92">
            15 308 107 15 15 4 16 return
          </CharString>
          <CharString index="93">
            30 -21 429 50 -19 -20 hstem
            return
          </CharString>
          <CharString index="94">
            hstemhm
            1 142 return
          </CharString>
          <CharString index="95">
            vhcurveto
            -37 callsubr
            return
          </CharString>
          <CharString index="96">
            53 -25 -48 29 -58 hhcurveto
            -134 -50 -119 -134 return
          </CharString>
          <CharString index="97">
            -10 -4 vhcurveto
            -7 -3 0 -5 -6 hhcurveto
            -6 -2 4 5 return
          </CharString>
          <CharString index="98">
            -15 -215 15 180 28 437 15 -8 28 hstemhm
            return
          </CharString>
          <CharString index="99">
            -358 -215 16 429 15 429 16 hstemhm
            return
          </CharString>
          <CharString index="100">
            178 -129 50 -93 -101 -116 -64 -110 return
          </CharString>
          <CharString index="101">
            -128 49 -119 128 68 47 46 65 23 return
          </CharString>
          <CharString index="102">
            15 437 28 195 15 return
          </CharString>
          <CharString index="103">
            359 646 rlineto
            -24 hlineto
            return
          </CharString>
          <CharString index="104">
            33 37 25 47 return
          </CharString>
          <CharString index="105">
            -32 21 -35 44 return
          </CharString>
          <CharString index="106">
            6 5 3 return
          </CharString>
          <CharString index="107">
            hhcurveto
            -6 -3 return
          </CharString>
          <CharString index="108">
            16 6 vhcurveto
            5 2 3 3 5 hhcurveto
            6 3 return
          </CharString>
          <CharString index="109">
            121 15 -121 return
          </CharString>
          <CharString index="110">
            -99 -166 -176 return
          </CharString>
          <CharString index="111">
            4 11 3 15 11 vvcurveto
            45 -31 38 -52 return
          </CharString>
          <CharString index="112">
            -68 callgsubr
            vstem
            return
          </CharString>
          <CharString index="113">
            204 192 19 72 15 callgsubr
            vstem
            return
          </CharString>
          <CharString index="114">
            127 -12 hlineto
            -33 -1 -11 -14 -30 hhcurveto
            return
          </CharString>
          <CharString index="115">
            rmoveto
            -248 -85 6 -17 248 85 rlineto
            return
          </CharString>
          <CharString index="116">
            -235 18 148 18 return
          </CharString>
          <CharString index="117">
            16 -3 15 247 12 return
          </CharString>
          <CharString index="118">
            93 117 hstemhm
            return
          </CharString>
          <CharString index="119">
            59 -7 59 hstemhm
            return
          </CharString>
          <CharString index="120">
            106 -106 112 return
          </CharString>
          <CharString index="121">
            -6 -5 -3 return
          </CharString>
          <CharString index="122">
            hvcurveto
            -163 return
          </CharString>
          <CharString index="123">
            105 -13 hlineto
            -25 -1 -8 -10 -22 hhcurveto
            return
          </CharString>
          <CharString index="124">
            2 222 264 186 -81 19 return
          </CharString>
          <CharString index="125">
            18 32 -20 -42 -9 -3 -14 -4 -12 return
          </CharString>
          <CharString index="126">
            25 rmoveto
            -96 -31 221 166 hvcurveto
            return
          </CharString>
          <CharString index="127">
            54 -14 callgsubr
            return
          </CharString>
          <CharString index="128">
            519 161 hstem
            46 221 vstem
            return
          </CharString>
        <CharString name=".notdef">
          -382 endchar
        </CharString>
        <CharString name="A">
          -71 callsubr
          446 16 -97 callgsubr
          hintmask 11110000
          -101 callsubr
          endchar
        </CharString>
        <CharString name="A.alt">
          54 0 16 183 122 35 18 296 -20 -13 callsubr
          -141 21 hintmask 11110100
          446 16 -97 callgsubr
          hintmask 11111000
          -73 -25 -27 -49 -77 hhcurveto
          -16 296 16 -17 vlineto
          -68 -69 1 68 18 3 23 8 22 hvcurveto
          130 378 rlineto
          6 hlineto
          hintmask 11110100
          -170 -170 rmoveto
          149 111 -166 -111 47 hvcurveto
          16 4 rlineto
          183 -72 -127 108 -123 hhcurveto
          -71 -48 -46 -51 -47 35 -31 37 32 34 23 44 35 -24 20 -47 callsubr
          5 5 1 hvcurveto
          43 6 52 21 39 hhcurveto
          endchar
        </CharString>
        <CharString name="AE">
          673 0 19 337 19 310 19 hstem
          701 6 callsubr
          309 16 rmoveto
          -16 465 -18 callsubr
          -51 315 23 hlineto
          97 29 -34 -97 hvcurveto
          17 275 -17 hlineto
          -97 -29 -31 -97 vhcurveto
          -23 287 60 hlineto
          163 35 -29 -163 hvcurveto
          16 208 -339 hlineto
          -36 -12 -26 -35 -20 hvcurveto
          -253 -451 rlineto
          -68 -38 -38 -54 -83 hhcurveto
          -16 293 16 -17 vlineto
          -88 -39 8 38 20 10 26 20 36 hvcurveto
          105 187 rlineto
          157 -315 hlineto
          579 vmoveto
          -248 -148 vlineto
          139 248 rlineto
          endchar
        </CharString>
        <CharString name="Aacute">
          -71 callsubr
          456 784 -106 callsubr
          170 -684 -97 callgsubr
          hintmask 11110000
          -101 callsubr
          endchar
        </CharString>
        <CharString name="Acircumflex">
          -71 callsubr
          330 784 -106 callgsubr
          296 -684 -97 callgsubr
          hintmask 11110000
          -101 callsubr
          endchar
        </CharString>
        <CharString name="Adieresis">
          20 callsubr
          81 121 hstem
          1 142 37 -13 callgsubr
          vstem
          446 16 -97 callgsubr
          -101 callsubr
          167 534 -107 callsubr
          endchar
        </CharString>
        <CharString name="Agrave">
          -71 callsubr
          446 16 -97 callgsubr
          hintmask 11110000
          -101 callsubr
          183 442 -101 callgsubr
          endchar
        </CharString>
        <CharString name="Aogonek">
          54 -44 callsubr
          215 16 226 16 412 -20 -13 callsubr
          263 19 21 100 hintmask 0011111100000000
          429 -98 rmoveto
          -26 callgsubr
          rrcurveto
          80 16 -71 hlineto
          -202 654 rlineto
          -3 hlineto
          -37 -10 -26 -35 -12 15 callsubr
          -471 rlineto
          -73 -25 -27 -49 -77 hhcurveto
          -16 296 16 -17 vlineto
          -68 -69 1 68 18 3 23 8 22 hvcurveto
          32 94 rlineto
          191 hlineto
          69 -226 rlineto
          -74 -16 125 -34 callsubr
          vhcurveto
          hintmask 0011111110000000
          -25 callsubr
          hvcurveto
          hintmask 0101111110000000
          -62 callgsubr
          hintmask 1001111110000000
          -73 callsubr
          vhcurveto
          hintmask 1001111100000000
          -24 callgsubr
          hvcurveto
          hintmask 0011111100000000
          -43 callsubr
          vhcurveto
          -145 624 rmoveto
          6 hlineto
          82 -268 rlineto
          -180 hlineto
          endchar
        </CharString>
        <CharString name="Aring">
          30 -14 callgsubr
          101 18 85 18 hstem
          1 142 106 18 83 18 vstem
          267 812 -80 callsubr
          197 -796 -97 callgsubr
          -101 callsubr
          endchar
        </CharString>
        <CharString name="Atilde">
          20 callsubr
          91 59 -7 59 -13 callsubr
          41 15 263 15 hintmask 11110111
          446 16 -97 callgsubr
          -101 callsubr
          hintmask 11101111
          68 594 -93 callsubr
          hintmask 11110111
          -56 callgsubr
        </CharString>
        <CharString name="B">
          59 0 16 328 16 274 -12 callgsubr
          104 204 112 -88 112 hintmask 11110100
          291 hmoveto
          -24 callsubr
          hintmask 11111000
          96 9 75 47 96 vvcurveto
          111 -83 29 -183 vhcurveto
          -227 -61 callgsubr
          -16 hlineto
          hintmask 11110100
          405 -39 callgsubr
          hintmask 11111000
          -24 320 rmoveto
          -110 -66 -38 -110 vhcurveto
          -28 274 43 hlineto
          102 59 -24 -102 hvcurveto
          endchar
        </CharString>
        <CharString name="B.alt">
          59 0 16 328 24 99 122 60 21 hstemhm
          117 20 -12 104 204 112 -88 112 hintmask 11010101
          457 -39 callgsubr
          -163 461 rmoveto
          hintmask 11010110
          87 52 -40 -82 -84 -47 -75 -131 -37 -41 2 15 -52 hvcurveto
          -369 -73 -16 239 vlineto
          hintmask 11010101
          -24 callsubr
          hintmask 11111010
          97 19 74 57 96 vvcurveto
          96 -97 44 -141 -116 -74 -54 -71 -82 callgsubr
          -15 -15 -16 -6 vhcurveto
          -63 callsubr
          hintmask 11010101
          21 27 42 16 56 hhcurveto
          endchar
        </CharString>
        <CharString name="C">
          -17 callsubr
          380 -63 callgsubr
          -23 callsubr
          -49 callgsubr
        </CharString>
        <CharString name="C.alt">
          -17 callsubr
          380 19 vstem
          336 650 rmoveto
          90 60 -47 -78 callsubr
          -44 callgsubr
          71 -80 54 -106 -175 3 callsubr
          -23 callsubr
          134 78 91 134 9 -32 callsubr
          -116 -9 -60 -87 -116 hhcurveto
          -146 -20 170 146 158 4 172 158 hvcurveto
          endchar
        </CharString>
        <CharString name="Ccedilla">
          -17 callsubr
          -184 222 342 19 19 -63 callgsubr
          -158 68 -147 137 -35 hvcurveto
          -31 -83 14 -17 rlineto
          23 15 35 20 31 hhcurveto
          32 45 -91 callgsubr
          73 -57 25 -39 -25 -24 -11 -11 -17 vhcurveto
          21 57 rlineto
          -2 15 16 -2 16 hhcurveto
          -49 callgsubr
        </CharString>
        <CharString name="D">
          105 -68 callgsubr
          284 122 vstem
          203 hmoveto
          108 hlineto
          225 99 113 225 203 -107 109 -203 hvcurveto
          -273 -61 callgsubr
          -16 hlineto
          461 329 8 callgsubr
          618 -5 callgsubr
        </CharString>
        <CharString name="D.alt">
          105 0 16 451 122 60 21 hstemhm
          113 20 -8 104 284 122 hintmask 10101100
          299 649 rmoveto
          169 45 -124 -186 -200 -27 -123 -196 hvcurveto
          -61 411 hlineto
          0 -18 -7 -24 -20 -24 5 15 -18 vhcurveto
          -424 -73 -16 259 vlineto
          225 99 123 225 227 -129 95 -203 hvcurveto
          hintmask 11110100
          -116 -74 -54 -71 -47 35 -31 37 32 35 21 44 35 -25 22 -28 -26 -15 -15 -16 -6 hvcurveto
          -63 callsubr
          hintmask 10101100
          26 33 45 11 56 hhcurveto
          endchar
        </CharString>
        <CharString name="DEL">
          -582 endchar
        </CharString>
        <CharString name="E">
          37 -70 callsubr
          192 19 72 15 callgsubr
          vstem
          52 hmoveto
          495 hlineto
          10 245 rlineto
          -104 callgsubr
          -43 callgsubr
          endchar
        </CharString>
        <CharString name="E.alt">
          -37 -20 28 71 132 273 124 38 24 hstemhm
          99 107 -78 100 139 113 -16 19 19 18 hintmask 1001010010000000
          399 372 rmoveto
          -6 -15 -18 -3 -15 hhcurveto
          -70 -53 46 93 93 63 51 70 hvcurveto
          hintmask 1011010110000000
          48 55 -27 -44 -37 callgsubr
          -10 2 9 14 -9 hvcurveto
          11 -7 -14 8 -20 hhcurveto
          -28 -27 -24 -35 -44 37 -21 32 37 35 29 51 83 -83 23 -66 -118 -88 -72 -102 -70 46 -61 100 -19 hvcurveto
          3 -9 rlineto
          hintmask 1101100010000000
          -118 -26 -60 -75 -88 vvcurveto
          -106 75 -62 150 141 55 70 75 48 -33 38 -50 vhcurveto
          hintmask 1101011010000000
          -38 -32 -32 -38 -41 29 -21 32 32 20 22 28 hvcurveto
          18 -6 -65 callgsubr
          4 5 vhcurveto
          hintmask 1101100010000000
          10 9 -22 -17 -82 -72 -36 -67 -94 -63 51 97 105 82 59 117 34 hvcurveto
          endchar
        </CharString>
        <CharString name="Eacute">
          -10 callgsubr
          -175 204 163 19 10 19 43 15 callgsubr
          -12 15 callgsubr
          hintmask 1110101001100000
          470 784 -106 callsubr
          hintmask 1111010110000000
          -238 -700 rmoveto
          495 hlineto
          10 245 rlineto
          -104 callgsubr
          -43 callgsubr
          endchar
        </CharString>
        <CharString name="Ecircumflex">
          37 -70 callsubr
          192 19 72 15 callgsubr
          vstem
          52 hmoveto
          495 hlineto
          10 245 rlineto
          -104 callgsubr
          -43 callgsubr
          275 768 -106 callgsubr
          endchar
        </CharString>
        <CharString name="Edieresis">
          -10 callgsubr
          192 19 72 15 callgsubr
          vstemhm
          hintmask 11111110
          52 hmoveto
          495 hlineto
          10 245 rlineto
          -104 callgsubr
          -43 callgsubr
          288 776 -107 callsubr
          endchar
        </CharString>
        <CharString name="Egrave">
          37 -70 callsubr
          192 19 72 15 callgsubr
          vstem
          52 hmoveto
          495 hlineto
          10 245 rlineto
          -104 callgsubr
          -43 callgsubr
          392 684 -101 callgsubr
          endchar
        </CharString>
        <CharString name="Eogonek">
          37 -70 callsubr
          192 19 72 15 callgsubr
          vstem
          52 hmoveto
          444 hlineto
          -52 -27 -39 -45 -60 -80 callgsubr
          -26 callgsubr
          0 callgsubr
          rcurveline
          -104 callgsubr
          -43 callgsubr
          endchar
        </CharString>
        <CharString name="Eth">
          105 0 16 304 16 298 16 hstem
          -20 callsubr
          284 122 vstem
          52 320 rmoveto
          73 -304 -73 -16 259 hlineto
          225 99 113 225 203 -107 109 -203 hvcurveto
          -273 -16 73 -298 -73 hlineto
          461 -7 8 callgsubr
          304 75 16 -75 298 -5 callgsubr
        </CharString>
        <CharString name="Euro">
          -102 -20 28 202 16 44 16 192 20 hstem
          73 115 259 16 vstem
          270 vmoveto
          71 -44 -71 -16 73 hlineto
          -145 12 82 -85 121 hhcurveto
          81 83 35 139 18 hvcurveto
          -18 hlineto
          -3 -1 -4 -3 vvcurveto
          -50 -5 -36 -86 -83 hhcurveto
          -69 -62 30 172 -8 hvcurveto
          146 16 -147 44 147 16 -146 hlineto
          161 9 66 31 65 hhcurveto
          79 29 -68 -105 11 hvcurveto
          16 193 -16 hlineto
          -19 -10 -9 -14 vhcurveto
          -17 -31 28 -60 hhcurveto
          -124 -103 -75 -137 -15 hvcurveto
          -73 hlineto
          endchar
        </CharString>
        <CharString name="F">
          -26 -70 callsubr
          177 19 75 19 vstem
          52 hmoveto
          260 16 -83 305 53 hlineto
          97 29 -34 -97 hvcurveto
          17 275 -17 hlineto
          -97 -29 -31 -97 vhcurveto
          -53 297 90 hlineto
          166 27 -36 -166 hvcurveto
          16 218 -476 -43 callgsubr
          endchar
        </CharString>
        <CharString name="F.alt">
          -30 -70 callsubr
          177 19 75 19 vstem
          432 652 rmoveto
          65 24 -37 -24 -5 -3 -4 -6 -5 4 callgsubr
          -2 hvcurveto
          22 -7 -17 9 -20 hhcurveto
          -34 -21 -23 -34 -44 callgsubr
          52 -38 41 -71 hvcurveto
          -92 -33 -35 -110 hhcurveto
          -36 -51 7 17 -46 hvcurveto
          -3 -18 rlineto
          -17 45 51 -7 39 110 42 35 83 hhcurveto
          -307 -636 rmoveto
          -82 callsubr
          305 43 hlineto
          97 29 -34 -97 hvcurveto
          17 275 -17 hlineto
          -97 -29 -31 -97 vhcurveto
          -43 297 -104 hlineto
          endchar
        </CharString>
        <CharString name="G">
          21 callgsubr
          -18 -20 hstem
          17 callsubr
          vstem
          -35 callgsubr
          158 4 173 158 -40 callsubr
          -176 -99 -166 -176 -23 callsubr
          hvcurveto
          83 44 35 63 hhcurveto
          19 14 -3 -4 11 hvcurveto
          276 73 16 -250 -16 vlineto
          endchar
        </CharString>
        <CharString name="G.alt">
          21 callgsubr
          hstemhm
          17 callsubr
          hintmask 11110100
          -35 callgsubr
          208 49 122 159 90 60 -47 -78 callsubr
          hvcurveto
          hintmask 11111000
          -44 callgsubr
          71 -80 54 -106 -176 -144 -119 -223 -23 callsubr
          57 38 17 10 39 vhcurveto
          14 -51 43 -19 -59 vvcurveto
          -52 -23 -43 -56 -34 -33 24 34 -5 vhcurveto
          5 -1 3 5 6 hhcurveto
          5 3 -3 -5 2 hvcurveto
          -28 callsubr
          -44 36 -47 57 77 45 68 134 hvcurveto
          317 73 16 -250 -16 vlineto
          endchar
        </CharString>
        <CharString name="H">
          -30 callgsubr
          125 -31 callsubr
          -618 -73 vlineto
          hintmask 01111000
          -16 260 16 -83 312 275 -312 -82 callsubr
          -31 callgsubr
          -260 -16 73 -290 -275 290 83 16 -260 -16 vlineto
          endchar
        </CharString>
        <CharString name="H.alt">
          -30 callgsubr
          326 351 rmoveto
          -179 -8 -163 -24 -183 vvcurveto
          -103 57 -53 81 56 51 37 88 vhcurveto
          529 83 16 -260 -16 73 -563 vlineto
          -20 -6 -37 -31 -55 -29 51 77 160 147 22 177 9 vhcurveto
          184 9 186 -12 206 vvcurveto
          86 -37 47 -66 -46 -45 -31 -83 vhcurveto
          -539 -73 vlineto
          hintmask 01111000
          -16 260 16 -83 557 vlineto
          44 14 9 19 22 15 -34 -54 -191 -171 12 -181 -8 vhcurveto
          endchar
        </CharString>
        <CharString name="I">
          -228 0 16 618 16 hstem
          125 104 vstem
          -89 callgsubr
          endchar
        </CharString>
        <CharString name="I.alt">
          -228 0 16 562 19 41 122 25 18 hstemhm
          96 21 8 104 35 18 hintmask 11010110
          125 588 rmoveto
          -572 -82 callsubr
          595 vlineto
          -175 -29 rmoveto
          -2 17 18 -2 18 hhcurveto
          88 87 32 93 64 -47 36 -48 hvcurveto
          hintmask 11011110
          -57 -34 -40 -47 hvcurveto
          hintmask 11111110
          -82 callgsubr
          -14 -58 callgsubr
          hvcurveto
          hintmask 11011110
          21 21 34 49 32 45 -21 -64 -76 -77 -27 -79 vhcurveto
          hintmask 11010110
          -18 -19 2 2 -17 hvcurveto
          endchar
        </CharString>
        <CharString name="Iacute">
          -228 0 16 618 16 hstem
          125 104 vstem
          -89 callgsubr
          243 150 -106 callsubr
          endchar
        </CharString>
        <CharString name="Icircumflex">
          -228 0 16 618 16 hstem
          125 104 vstem
          -89 callgsubr
          128 150 -106 callgsubr
          endchar
        </CharString>
        <CharString name="Idieresis">
          -228 0 16 618 16 81 121 hstemhm
          30 121 -26 104 -20 121 hintmask 11001000
          -89 callgsubr
          hintmask 11110100
          157 158 -107 callsubr
          endchar
        </CharString>
        <CharString name="Igrave">
          -228 0 16 618 16 hstem
          125 104 vstem
          -89 callgsubr
          187 66 -101 callgsubr
          endchar
        </CharString>
        <CharString name="Iogonek">
          -228 -44 callsubr
          215 16 618 16 hstemhm
          68 19 21 100 -83 104 hintmask 00111101
          91 -98 rmoveto
          -26 callgsubr
          rrcurveto
          102 16 -83 -31 callgsubr
          -260 -61 callgsubr
          -16 107 -34 callsubr
          -25 callsubr
          vhcurveto
          hintmask 01011101
          26 -17 28 -36 vhcurveto
          hintmask 01011110
          -24 -23 -16 -29 hvcurveto
          hintmask 10011110
          -73 callsubr
          vhcurveto
          hintmask 10011101
          -24 callgsubr
          hvcurveto
          hintmask 00111101
          -43 callsubr
          vhcurveto
          endchar
        </CharString>
        <CharString name="Itilde">
          -228 0 16 618 16 35 12 callsubr
          31 15 79 104 80 15 hintmask 11101110
          -89 callgsubr
          hintmask 11011110
          55 162 -93 callsubr
          hintmask 11101110
          -56 callgsubr
        </CharString>
        <CharString name="J">
          -213 -235 18 29 122 700 16 hstemhm
          29 21 90 104 hintmask 10111000
          122 -235 rmoveto
          77 45 -36 callsubr
          -23 -43 -56 -34 -33 24 34 -5 vhcurveto
          5 -1 2 6 7 hhcurveto
          6 2 -4 -5 2 hvcurveto
          hintmask 11111000
          -28 callsubr
          hvcurveto
          hintmask 10111000
          -44 36 -47 57 vhcurveto
          endchar
        </CharString>
        <CharString name="J.alt">
          -167 -90 23 87 -21 118 21 496 16 hstemhm
          -30 18 25 122 63 104 hintmask 11111010
          302 -31 callsubr
          73 16 -260 -16 83 -591 hlineto
          -77 -47 -33 -49 -55 -59 44 70 49 34 21 21 5 4 -3 14 callsubr
          -3 -5 -2 vhcurveto
          hintmask 11111110
          -16 -6 -15 -14 -26 vvcurveto
          -28 22 -25 35 44 21 35 32 37 -31 35 -47 vhcurveto
          hintmask 11111010
          -47 -40 -34 -57 -87 75 -50 78 87 92 62 143 hvcurveto
          endchar
        </CharString>
        <CharString name="Jcircumflex">
          -213 -235 18 32 105 714 16 hstemhm
          32 18 21 88 -19 104 hintmask 11110100
          121 -217 rmoveto
          -39 -32 25 36 5 0 6 2 5 hvcurveto
          6 2 3 3 6 hhcurveto
          5 3 -4 -4 hvcurveto
          -4 -1 -4 -3 vvcurveto
          hintmask 11111000
          -19 14 -16 27 30 18 25 27 32 -25 21 -34 vhcurveto
          hintmask 11110100
          -40 -28 -35 -39 -47 38 -34 51 77 46 -36 callsubr
          -24 -43 -56 vhcurveto
          63 1001 -106 callgsubr
          endchar
        </CharString>
        <CharString name="K">
          88 -68 callgsubr
          226 172 -15 callgsubr
          250 vlineto
          86 97 186 -347 rlineto
          -74 -16 264 16 -71 hlineto
          -236 425 63 71 rlineto
          69 62 49 53 69 hhcurveto
          16 -259 -16 vlineto
          46 41 0 -46 -31 -33 -44 -25 -29 hvcurveto
          -168 -191 rlineto
          341 83 16 -260 -16 vlineto
          endchar
        </CharString>
        <CharString name="K.alt">
          86 -10 43 -33 16 310 17 152 122 17 16 -8 18 hstemhm
          -20 callsubr
          115 21 76 106 -34 18 hintmask 0110101101000000
          hintmask 0110101110000000
          547 120 rmoveto
          118 -8 108 -133 9 vhcurveto
          -4 8 rlineto
          hintmask 0110011101000000
          96 58 33 70 68 vvcurveto
          64 -47 37 -49 -57 -34 -40 -47 vhcurveto
          hintmask 0111101101000000
          -82 callgsubr
          -14 -58 callgsubr
          hvcurveto
          hintmask 0110011101000000
          21 21 34 49 32 46 -21 -64 -103 -102 -111 -182 vhcurveto
          hintmask 0110101110000000
          291 83 16 -260 -16 73 -618 -82 callsubr
          308 vlineto
          1 17 18 1 17 hhcurveto
          83 77 -20 -113 hvcurveto
          -84 vlineto
          hintmask 1010101110000000
          -83 31 -36 49 62 38 45 74 15 vhcurveto
          -18 4 rlineto
          -57 -13 -21 -23 -15 hhcurveto
          -16 -6 14 49 hvcurveto
          endchar
        </CharString>
        <CharString name="L">
          -52 callgsubr
          618 93 16 -270 -43 callgsubr
          endchar
        </CharString>
        <CharString name="L.alt">
          -25 -34 18 16 16 120 22 476 -12 callgsubr
          104 154 123 21 18 hintmask 01111010
          52 hmoveto
          103 hlineto
          134 48 -34 82 hhcurveto
          hintmask 11111010
          79 47 45 61 51 -40 35 -44 -3 callgsubr
          hvcurveto
          hintmask 01111110
          -50 callsubr
          hintmask 11111010
          -48 -36 -40 -76 -52 -56 23 7 -78 vhcurveto
          620 93 16 -270 -16 73 -618 vlineto
          hintmask 01111010
          -73 hlineto
          endchar
        </CharString>
        <CharString name="Lslash">
          -52 callgsubr
          272 hlineto
          234 94 rlineto
          22 vlineto
          -234 -94 rlineto
          324 93 16 -270 -16 73 -366 vlineto
          -94 -37 rlineto
          -22 vlineto
          94 37 rlineto
          -230 -73 vlineto
          endchar
        </CharString>
        <CharString name="M">
          263 0 16 572 62 -16 -12 callgsubr
          20 471 104 hintmask 10111000
          439 136 rmoveto
          -6 hlineto
          -191 514 -18 callgsubr
          -74 callsubr
          hintmask 11011000
          445 5 vlineto
          187 -498 rlineto
          -41 15 18 -40 43 hhcurveto
          4 hlineto
          193 579 rlineto
          6 -572 -82 callsubr
          hlineto
          hintmask 10111000
          -31 callgsubr
          -193 vlineto
          endchar
        </CharString>
        <CharString name="M.alt">
          263 0 16 -9 30 551 62 -15 15 1 callgsubr
          20 163 18 63 98 129 104 hintmask 10011101
          349 183 rmoveto
          hintmask 01011111
          -25 -42 -16 -24 -28 vvcurveto
          -61 46 -21 46 44 43 26 54 37 -46 92 0 vhcurveto
          -199 434 -18 callgsubr
          hintmask 10101101
          -74 callsubr
          445 7 vlineto
          hintmask 01101111
          222 -471 rlineto
          1 -2 14 -35 -12 vvcurveto
          -22 -13 -9 -12 -26 -12 23 27 28 18 23 11 19 vhcurveto
          254 431 rlineto
          7 hlineto
          hintmask 10011101
          -572 -82 callsubr
          -31 callgsubr
          -182 vlineto
          endchar
        </CharString>
        <CharString name="N">
          -91 callsubr
          endchar
        </CharString>
        <CharString name="N.alt">
          80 -20 21 -8 127 -106 -21 641 16 hstemhm
          -22 122 25 20 372 20 hintmask 10010110
          537 507 rmoveto
          97 34 30 97 vhcurveto
          16 -286 -16 7 vlineto
          97 31 -30 -97 hvcurveto
          hintmask 01010110
          -77 callgsubr
          hintmask 10010110
          -509 vlineto
          -59 -34 -20 -21 -5 -4 3 -1 callsubr
          3 5 2 vhcurveto
          hintmask 10011110
          16 6 15 14 26 vvcurveto
          28 -22 25 -35 -44 -21 -35 -32 -37 31 -35 47 vhcurveto
          hintmask 10010110
          49 40 33 67 hvcurveto
          468 4 vlineto
          264 -454 rlineto
          hintmask 00110110
          -33 callsubr
          endchar
        </CharString>
        <CharString name="Nacute">
          -91 callsubr
          -112 791 -106 callsubr
          endchar
        </CharString>
        <CharString name="Ntilde">
          107 -7 127 -120 16 -2 -21 641 16 91 12 callsubr
          125 20 38 15 263 15 41 20 hintmask 0101101111000000
          537 507 rmoveto
          97 34 30 97 vhcurveto
          16 -286 -16 7 vlineto
          97 31 -30 -97 hvcurveto
          hintmask 1001101111000000
          -77 callgsubr
          -446 vlineto
          hintmask 0101101111000000
          -74 callsubr
          405 4 vlineto
          264 -454 rlineto
          hintmask 0011011111000000
          -33 callsubr
          -278 859 -93 callsubr
          hintmask 0101101111000000
          -56 callgsubr
        </CharString>
        <CharString name="O">
          -47 callgsubr
          335 -20 -76 callsubr
        </CharString>
        <CharString name="O.alt">
          -47 callgsubr
          375 649 rmoveto
          96 70 -66 -78 callsubr
          -44 callgsubr
          71 -94 74 -118 -192 -111 -135 -207 -59 callgsubr
          186 97 162 186 38 -6 49 -14 47 hvcurveto
          -10 -51 -69 -16 -24 3 rrcurveto
          1 -24 0 -20 -26 vvcurveto
          -152 -9 -177 -152 -156 -5 173 156 186 39 135 162 vhcurveto
          endchar
        </CharString>
        <CharString name="OE">
          426 -18 19 -1 19 337 19 310 19 -1 19 hstem
          -297 222 262 222 45 6 callsubr
          441 hmoveto
          495 hlineto
          10 245 rlineto
          -104 callgsubr
          -1 hlineto
          14 -32 -35 7 -39 hhcurveto
          -182 -101 -160 -182 -59 callgsubr
          39 35 8 12 32 hvcurveto
          -106 -1 rmoveto
          -156 -5 173 156 152 9 171 152 152 9 -171 -152 -152 -9 -177 -152 hvcurveto
          endchar
        </CharString>
        <CharString name="Oacute">
          -88 callsubr
          435 784 -106 callsubr
          hintmask 11101000
          80 -720 -76 callsubr
        </CharString>
        <CharString name="Ocircumflex">
          -88 callsubr
          hintmask 11101000
          335 -20 -105 callgsubr
          2 785 -106 callgsubr
          endchar
        </CharString>
        <CharString name="Odieresis">
          -88 callsubr
          hintmask 11101000
          335 -20 -105 callgsubr
          29 793 -107 callsubr
          endchar
        </CharString>
        <CharString name="Ograve">
          -88 callsubr
          416 700 -101 callgsubr
          hintmask 11101000
          99 -804 -76 callsubr
        </CharString>
        <CharString name="Oslash">
          -47 callgsubr
          335 -20 rmoveto
          186 97 162 186 120 -45 111 -82 61 hvcurveto
          42 90 rlineto
          -25 hlineto
          -36 -77 rlineto
          23 -39 -46 14 -52 hhcurveto
          -182 -101 -160 -182 -128 46 -117 89 -60 hvcurveto
          -44 -95 rlineto
          24 hlineto
          39 83 rlineto
          -19 36 43 -12 50 hhcurveto
          -161 348 rmoveto
          152 9 171 152 56 37 -24 -37 24 vhcurveto
          -242 -519 rlineto
          -35 65 -1 99 93 vvcurveto
          161 -329 rmoveto
          -52 -35 19 31 -24 hvcurveto
          241 516 rlineto
          28 -64 3 -89 -84 vvcurveto
          -152 -9 -177 -152 vhcurveto
          endchar
        </CharString>
        <CharString name="Otilde">
          -88 callsubr
          hintmask 11101000
          335 -20 -105 callgsubr
          -69 853 -93 callsubr
          -56 callgsubr
        </CharString>
        <CharString name="P">
          -6 0 16 267 16 335 16 hstem
          -20 callsubr
          214 112 -15 callgsubr
          267 72 vlineto
          150 104 49 150 146 -119 22 -126 hvcurveto
          -258 -16 hlineto
          391 -159 rmoveto
          -116 -40 -60 -116 vhcurveto
          -58 335 50 hlineto
          115 49 -37 -122 hvcurveto
          endchar
        </CharString>
        <CharString name="P.alt">
          -6 0 16 267 16 168 7 callgsubr
          214 112 hintmask 11010110
          303 670 rmoveto
          hintmask 11111010
          -116 -79 -54 -71 -47 35 -31 37 32 35 21 44 35 -25 22 -28 -26 -15 -15 -16 -6 hvcurveto
          -63 callsubr
          26 33 50 12 56 hhcurveto
          79 65 -39 -136 -116 -40 -60 -116 hvcurveto
          hintmask 11010110
          -58 130 -29 callgsubr
          267 90 vlineto
          150 86 49 150 130 -104 58 -148 hvcurveto
          endchar
        </CharString>
        <CharString name="Q">
          88 -227 18 35 122 -86 82 39 16 652 19 hstemhm
          52 122 -17 34 305 122 -17 21 hintmask 1011110100000000
          335 -1 rmoveto
          -156 -5 173 156 152 9 171 152 152 9 -171 -152 -152 -9 -177 -152 hvcurveto
          hintmask 1011110010000000
          176 -208 rmoveto
          -101 -80 153 -90 hhcurveto
          3 vlineto
          6 11 42 6 23 3 45 6 44 9 44 20 rrcurveto
          hintmask 1011110100000000
          122 55 52 138 133 vvcurveto
          182 -101 160 -182 -182 -101 -160 -182 -171 81 -150 157 -24 vhcurveto
          -5 vlineto
          hintmask 1011101010000000
          -76 -6 -57 -34 -76 vvcurveto
          -38 18 -34 25 -28 vhcurveto
          14 11 rlineto
          -16 18 -7 17 14 vvcurveto
          24 20 16 36 vhcurveto
          75 84 -89 103 hhcurveto
          71 42 46 51 hvcurveto
          hintmask 1101110010000000
          47 -35 31 -37 -32 -34 -23 -44 -35 24 -20 28 26 15 16 1 callsubr
          -6 -5 -1 hvcurveto
          hintmask 1011110010000000
          -43 -6 -40 -21 -44 hhcurveto
          endchar
        </CharString>
        <CharString name="Q.alt">
          88 -179 18 28 122 -9 19 127 67 458 19 hstemhm
          52 122 39 26 257 122 18 21 hintmask 1011111100000000
          335 -20 -105 callgsubr
          hintmask 1011111110000000
          231 -160 rmoveto
          -180 128 354 -202 hhcurveto
          -64 -35 -53 -55 -25 9 -26 26 -24 hvcurveto
          18 4 rlineto
          -20 16 -7 18 17 vvcurveto
          33 29 28 35 vhcurveto
          154 -71 -305 180 hhcurveto
          57 34 43 47 hvcurveto
          hintmask 1101111110000000
          47 -35 31 -37 -32 -35 -21 -44 -35 25 -22 28 26 14 15 1 callsubr
          -4 -5 hvcurveto
          hintmask 1011111110000000
          -21 -21 -37 -49 vhcurveto
          endchar
        </CharString>
        <CharString name="R">
          -103 callgsubr
          endchar
        </CharString>
        <CharString name="R.alt">
          85 -10 43 -33 16 314 16 121 7 callgsubr
          211 13 callsubr
          hintmask 0110101100000000
          299 650 rmoveto
          hintmask 0110101010000000
          78 63 -38 -124 -112 -41 -30 -106 hvcurveto
          -64 83 -29 callgsubr
          314 72 vlineto
          hintmask 1010101100000000
          93 46 -39 -116 hvcurveto
          -66 vlineto
          -83 35 -36 45 62 38 45 74 15 vhcurveto
          -18 4 rlineto
          -85 callsubr
          hintmask 0111110010000000
          100 13 57 60 83 vvcurveto
          118 -99 55 -150 -116 -79 -54 -71 -82 callgsubr
          -15 -15 -16 -6 vhcurveto
          -63 callsubr
          hintmask 0110101100000000
          26 33 50 12 56 hhcurveto
          endchar
        </CharString>
        <CharString name="Racute">
          -103 callgsubr
          -45 283 -106 callsubr
          endchar
        </CharString>
        <CharString name="Rcaron">
          -103 callgsubr
          -315 360 -78 callgsubr
        </CharString>
        <CharString name="Rcommaaccent">
          85 -204 18 32 108 36 43 -33 16 314 16 288 -12 callgsubr
          104 166 20 25 13 callsubr
          hintmask 1001111010000000
          hintmask 1010111010000000
          617 113 rmoveto
          -85 callsubr
          hintmask 1001111001000000
          104 14 53 64 89 vvcurveto
          135 -137 7 -122 vhcurveto
          -241 -16 73 -618 -82 callsubr
          314 72 hlineto
          hintmask 1010111010000000
          93 46 -39 -116 hvcurveto
          -66 vlineto
          -83 35 -36 45 62 38 45 74 15 vhcurveto
          hintmask 1001111001000000
          -195 392 rmoveto
          -122 -37 -33 -110 vhcurveto
          -64 288 50 hlineto
          106 55 -15 -118 hvcurveto
          hintmask 1101111110000000
          -25 -618 rmoveto
          -54 callsubr
          4 -18 rlineto
          50 2 32 36 49 vvcurveto
          endchar
        </CharString>
        <CharString name="S">
          -78 -20 19 652 19 hstemhm
          46 12 -12 76 272 76 -38 12 hintmask 11010100
          hintmask 11101000
          260 -1 rmoveto
          -138 -53 100 126 -17 hvcurveto
          -16 hlineto
          10 -245 rlineto
          12 hlineto
          22 3 8 12 23 30 48 -34 80 hhcurveto
          122 98 77 122 hvcurveto
          hintmask 11011000
          230 -348 -60 185 vvcurveto
          72 47 45 72 vhcurveto
          hintmask 11010100
          -40 callsubr
          -114 -72 -66 -114 hvcurveto
          hintmask 11011000
          -230 348 60 -185 vvcurveto
          hintmask 11101000
          -83 -51 -53 -83 vhcurveto
          endchar
        </CharString>
        <CharString name="S.alt">
          -78 -20 19 84 122 262 122 62 19 hstemhm
          24 19 3 76 262 76 -52 20 hintmask 10010110
          hintmask 11011010
          43 112 rmoveto
          5 3 5 -1 callsubr
          -3 -5 2 vhcurveto
          -16 6 16 -15 26 hhcurveto
          28 25 22 35 44 -35 21 -32 -37 -35 -31 -47 -96 99 -51 103 114 120 63 136 hvcurveto
          hintmask 10010110
          230 -338 -60 185 vvcurveto
          72 67 45 72 vhcurveto
          hintmask 10110101
          90 51 -48 -78 callsubr
          -44 callgsubr
          71 -70 54 -106 -114 -92 -66 -114 hvcurveto
          hintmask 10010110
          -230 338 60 -185 vvcurveto
          -94 -83 -42 -84 vhcurveto
          hintmask 10011010
          -71 -73 30 58 -23 hvcurveto
          hintmask 11011010
          -3 8 -4 8 9 vvcurveto
          endchar
        </CharString>
        <CharString name="T">
          -46 -42 callsubr
          618 hlineto
          166 17 -56 -166 10 hvcurveto
          16 hlineto
          -10 238 rlineto
          -502 hlineto
          -10 -238 rlineto
          16 hlineto
          166 10 17 56 166 hhcurveto
          -618 -73 vlineto
          endchar
        </CharString>
        <CharString name="T.alt">
          -90 -42 callsubr
          596 hlineto
          -13 46 45 -9 38 hhcurveto
          100 43 64 58 44 -34 42 -53 -3 callgsubr
          -2 callsubr
          35 22 25 28 26 -15 14 -16 6 hvcurveto
          -5 2 -79 callgsubr
          5 21 34 -23 -43 -51 -42 -51 -83 -58 -74 23 24 -78 vhcurveto
          18 -58 -75 36 -62 hhcurveto
          -22 -21 -5 -11 -17 hvcurveto
          -23 -16 -15 -24 -31 vvcurveto
          -82 callgsubr
          -14 -58 callgsubr
          12 8 16 16 12 hvcurveto
          11 15 18 4 21 hhcurveto
          50 58 -27 -15 46 hvcurveto
          17 -6 rlineto
          -628 -73 vlineto
          endchar
        </CharString>
        <CharString name="Thorn">
          6 0 15 160 20 350 16 114 15 hstem
          94 89 260 97 vstem
          94 675 rmoveto
          -660 -67 -15 224 15 -68 172 vlineto
          -8 34 37 -4 37 hhcurveto
          126 123 49 148 127 -66 62 -220 hvcurveto
          -71 114 67 15 -224 -15 hlineto
          192 -130 rmoveto
          149 76 -46 -127 -135 -72 -42 -97 -29 -32 4 6 -30 hvcurveto
          340 vlineto
          endchar
        </CharString>
        <CharString name="U">
          97 -74 callgsubr
          -104 callsubr
          endchar
        </CharString>
        <CharString name="U.alt">
          59 -74 callgsubr
          380 4 rmoveto
          -156 -4 138 166 hvcurveto
          326 83 16 -260 -16 73 -326 vlineto
          -191 54 -137 191 204 26 263 164 113 -23 140 -119 -53 -35 -42 -45 -82 callgsubr
          -14 -58 callgsubr
          21 21 34 49 84 36 -103 -132 -212 -48 -191 -144 hvcurveto
          endchar
        </CharString>
        <CharString name="Uacute">
          97 -74 callgsubr
          -104 callsubr
          437 150 -106 callsubr
          endchar
        </CharString>
        <CharString name="Ucircumflex">
          97 -74 callgsubr
          -104 callsubr
          338 150 -106 callgsubr
          endchar
        </CharString>
        <CharString name="Udieresis">
          152 -18 37 666 19 hstemhm
          94 204 -172 204 289 25 7 25 hintmask 11101000
          hintmask 11010100
          -104 callsubr
          352 158 -107 callsubr
          endchar
        </CharString>
        <CharString name="Ugrave">
          97 -74 callgsubr
          -104 callsubr
          419 66 -101 callgsubr
          endchar
        </CharString>
        <CharString name="Uogonek">
          97 -74 callgsubr
          116 -31 callsubr
          -326 vlineto
          -191 54 -137 191 7 6 0 1 6 vhcurveto
          -36 -27 -24 -38 -48 -80 callgsubr
          8 32 34 38 52 20 rrcurveto
          113 43 12 136 157 vvcurveto
          179 vlineto
          97 34 30 97 vhcurveto
          16 -286 -16 7 vlineto
          97 31 -30 -97 hvcurveto
          -214 vlineto
          -142 -19 -2 callgsubr
          -156 -5 139 166 vhcurveto
          326 83 16 -260 -16 vlineto
          endchar
        </CharString>
        <CharString name="V">
          -85 -64 callsubr
          163 471 rlineto
          -41 callgsubr
        </CharString>
        <CharString name="V.alt">
          -97 -64 callsubr
          171 499 rlineto
          4 callsubr
          -3 callgsubr
          -2 callsubr
          35 22 25 28 26 -15 14 -16 6 vhcurveto
          -5 2 -79 callgsubr
          5 18 callsubr
          vhcurveto
          endchar
        </CharString>
        <CharString name="W">
          230 1 -21 654 16 hstemhm
          -50 952 -142 142 hintmask 11100000
          -79 callsubr
          157 471 rlineto
          hintmask 11010000
          -41 callgsubr
        </CharString>
        <CharString name="W.alt">
          234 1 -21 654 16 -11 21 hstemhm
          633 122 20 19 hintmask 11001000
          -79 callsubr
          171 499 rlineto
          hintmask 10101000
          4 callsubr
          vhcurveto
          hintmask 10111000
          -3 callgsubr
          -2 callsubr
          35 22 25 28 26 -15 14 -16 6 hvcurveto
          -5 2 -79 callgsubr
          5 vhcurveto
          hintmask 10101000
          18 callsubr
          hvcurveto
          endchar
        </CharString>
        <CharString name="X">
          91 0 16 617 16 -15 16 hstemhm
          10 156 -156 677 -199 156 hintmask 10101000
          hintmask 11000100
          644 649 rmoveto
          -260 -16 8 hlineto
          52 44 -6 -52 -23 -12 -33 -13 -25 hvcurveto
          -71 -133 rlineto
          hintmask 10110000
          -168 273 rlineto
          83 16 -272 -16 73 hlineto
          170 -276 -134 -260 -33 -64 -43 -16 -58 -2 rlinecurve
          -16 260 16 -8 vlineto
          -52 -44 6 52 23 12 33 13 25 hvcurveto
          98 183 -2 4 201 -326 rlineto
          -73 -16 272 16 -83 hlineto
          -201 327 rlineto
          hintmask 11000100
          107 208 33 64 43 16 58 2 rlinecurve
          endchar
        </CharString>
        <CharString name="X.alt">
          91 -11 18 -7 16 11 117 361 117 12 16 -8 18 hstemhm
          29 31 561 31 hintmask 01001011
          244 -31 callsubr
          83 16 -272 -16 73 hlineto
          360 -618 rlineto
          -73 -16 272 16 -83 hlineto
          -245 330 rmoveto
          hintmask 01000111
          120 224 rlineto
          21 11 26 51 56 hhcurveto
          24 25 -18 -10 -37 callgsubr
          hvcurveto
          hintmask 01011011
          -10 -4 17 -27 hhcurveto
          -31 -24 -24 -28 -46 35 -19 31 40 30 33 41 hvcurveto
          hintmask 10000111
          12 -2 12 -6 12 vhcurveto
          32 -16 -30 13 -28 hhcurveto
          -45 -35 -30 -42 -22 hvcurveto
          -129 -242 rlineto
          -17 -43 rmoveto
          -120 -224 rlineto
          -21 -11 -26 -51 -56 hhcurveto
          -24 -25 18 10 -20 callgsubr
          hvcurveto
          hintmask 01101011
          10 4 -17 27 hhcurveto
          31 24 24 28 46 -35 19 -31 -40 -30 -33 -41 hvcurveto
          hintmask 10001011
          -12 2 -12 6 -12 vhcurveto
          -32 16 30 -13 28 hhcurveto
          45 35 30 42 22 hvcurveto
          129 242 rlineto
          endchar
        </CharString>
        <CharString name="Y">
          -87 callgsubr
          endchar
        </CharString>
        <CharString name="Y.alt">
          -10 0 16 618 16 -11 21 hstemhm
          253 104 14 122 20 19 hintmask 11010100
          186 -31 callsubr
          83 16 -268 -16 73 hlineto
          179 -353 rlineto
          -265 -82 callsubr
          275 vlineto
          -16 -24 rmoveto
          159 222 rlineto
          hintmask 10110100
          16 22 16 33 33 vvcurveto
          45 -31 38 -52 vhcurveto
          hintmask 10111100
          -3 callgsubr
          -2 callsubr
          35 22 25 28 26 -15 14 -16 6 hvcurveto
          -5 2 -79 callgsubr
          5 vhcurveto
          hintmask 10110100
          18 32 -20 -42 -42 -22 -26 -11 -17 hvcurveto
          -149 -207 rlineto
          endchar
        </CharString>
        <CharString name="Yacute">
          -87 callgsubr
          -163 151 -106 callsubr
          endchar
        </CharString>
        <CharString name="Ydieresis">
          61 0 16 617 16 -15 16 81 121 hstemhm
          201 121 -34 104 -12 121 -10 156 hintmask 10100100
          hintmask 11000101
          647 649 rmoveto
          -260 -16 8 hlineto
          52 44 -6 -52 -23 -13 -32 -13 -26 hvcurveto
          -84 -163 rlineto
          hintmask 10100100
          -160 303 rlineto
          83 16 -268 -16 73 hlineto
          179 -333 rlineto
          -285 -82 callsubr
          295 vlineto
          hintmask 11000101
          121 240 32 64 44 16 58 2 rlinecurve
          hintmask 10111010
          -267 159 -107 callsubr
          endchar
        </CharString>
        <CharString name="Z">
          -58 0 16 618 16 hstem
          41 16 vstem
          500 650 rmoveto
          -459 -218 16 hlineto
          166 27 36 166 vhcurveto
          134 hlineto
          -370 -618 rlineto
          -16 486 -18 callsubr
          -133 hlineto
          370 618 rlineto
          endchar
        </CharString>
        <CharString name="Z.alt">
          -14 -21 18 19 18 115 22 314 123 42 -20 21 18 hstemhm
          39 21 330 123 21 18 hintmask 1011011010000000
          39 563 rmoveto
          -47 38 -31 37 32 35 21 44 36 -27 22 -28 -18 -23 -10 -21 -6 vhcurveto
          -6 -2 -3 -3 -5 0 callsubr
          5 4 34 42 40 80 82 27 -19 -3 118 hvcurveto
          hintmask 1111011010000000
          -394 -612 12 -15 rlineto
          12 63 44 2 22 123 71 -37 73 hhcurveto
          hintmask 1011011010000000
          80 49 45 61 51 -40 35 -44 -3 callgsubr
          hvcurveto
          hintmask 1011011110000000
          -50 callsubr
          hintmask 1011011010000000
          -48 -36 -40 -76 vhcurveto
          -66 -74 37 -118 -7 -8 0 -7 hhcurveto
          hintmask 1111101010000000
          387 601 rlineto
          15 vlineto
          -2 -37 -32 -1 -27 -140 -21 22 -89 hhcurveto
          -82 -62 -38 -68 hvcurveto
          endchar
        </CharString>
        <CharString name="a">
          -57 -97 callsubr
          241 480 -107 callgsubr
        </CharString>
        <CharString name="aacute">
          -57 -97 callsubr
          358 -83 callsubr
          63 -39 -107 callgsubr
        </CharString>
        <CharString name="acircumflex">
          -57 -97 callsubr
          264 603 -106 callgsubr
          157 -39 -107 callgsubr
        </CharString>
        <CharString name="acute">
          -254 21 callsubr
          233 -83 callsubr
          endchar
        </CharString>
        <CharString name="adieresis">
          -57 -97 callsubr
          302 611 -107 callsubr
          118 -131 -107 callgsubr
        </CharString>
        <CharString name="ae">
          203 -97 callsubr
          571 -22 callgsubr
          -72 -61 -25 -43 -38 hvcurveto
          39 -23 -47 29 -89 hhcurveto
          -80 -81 -33 -80 -40 29 -31 40 30 26 23 30 29 -18 25 -30 -22 -15 -12 -14 -3 hvcurveto
          -71 callgsubr
          -4 -5 3 6 30 30 53 96 98 25 -61 -98 hvcurveto
          -49 vlineto
          -133 3 -171 -12 -133 vvcurveto
          -88 76 -42 88 133 59 62 0 vhcurveto
          -39 35 58 -23 67 hhcurveto
          102 64 68 94 21 -32 callsubr
          -73 -18 -46 -63 -82 hhcurveto
          -100 -38 82 100 hvcurveto
          29 47 vlineto
          123 132 10 123 91 -85 37 -91 hvcurveto
          -223 -313 rmoveto
          -81 -35 -78 -81 -62 -29 44 62 109 99 14 108 -3 vhcurveto
          97 3 rmoveto
          28 vlineto
          92 25 106 92 63 25 -48 -63 -99 -71 -16 -99 vhcurveto
          endchar
        </CharString>
        <CharString name="agrave">
          -57 -97 callsubr
          328 -48 callsubr
          93 -123 -107 callgsubr
        </CharString>
        <CharString name="ampersand">
          79 -20 38 59 18 20 101 89 90 30 105 -52 107 -35 18 80 22 hstemhm
          102 105 -71 92 65 26 59 117 -48 19 76 32 -25 18 137 19 hintmask 1101001110101011
          427 305 rmoveto
          65 57 -58 -77 -99 -89 -53 -70 -98 -85 46 132 117 51 40 119 38 hvcurveto
          -5 18 rlineto
          hintmask 1101010101101011
          0 -35 -14 -25 -58 -26 57 58 99 44 39 69 54 52 -44 -47 -37 callgsubr
          -19 callgsubr
          6 -1 vhcurveto
          14 -3 -15 14 -22 hhcurveto
          -30 -18 -25 -29 -30 26 -23 30 40 29 31 40 83 -79 38 -70 -92 -89 -63 -98 -67 35 -45 56 -17 hvcurveto
          2 -10 rlineto
          hintmask 1101001110101011
          -61 -29 -66 -62 -99 vvcurveto
          -91 66 -109 167 153 79 97 95 51 -22 49 -46 34 vhcurveto
          0 224 -11 161 vvcurveto
          71 -49 41 -53 vhcurveto
          hintmask 1101001110101101
          -41 -38 -33 -43 hvcurveto
          hintmask 1101101110101101
          -38 28 -29 36 34 23 25 31 25 -20 24 -27 -13 -7 -5 -6 -5 vhcurveto
          -3 -3 -2 -1 -3 hhcurveto
          -5 -4 4 5 hvcurveto
          hintmask 1101001110110101
          12 23 14 22 41 44 -30 -58 -89 -104 11 -107 -9 vhcurveto
          -117 -10 -83 -68 -95 vvcurveto
          -63 41 -62 77 34 50 17 57 vhcurveto
          hintmask 1111001110110011
          30 -26 35 -36 -37 -18 -25 -28 -25 15 -23 30 vhcurveto
          13 5 8 5 hhcurveto
          6 3 -4 -5 -4 -2 -2 -4 -3 hvcurveto
          hintmask 1101001110110011
          -5 -8 -14 -5 -16 hhcurveto
          -59 -33 52 52 hvcurveto
          hintmask 1101001110101011
          53 34 53 74 vhcurveto
          endchar
        </CharString>
        <CharString name="aogonek">
          -57 -97 callsubr
          241 -22 callgsubr
          -80 -81 -33 -80 -40 29 -31 40 30 26 23 30 29 -18 25 -30 -22 -15 -12 -14 -3 hvcurveto
          -71 callgsubr
          -4 -5 3 6 30 30 53 96 98 25 -61 -98 hvcurveto
          -49 vlineto
          -133 3 -171 -12 -133 vvcurveto
          -88 76 -42 88 73 57 40 71 18 vhcurveto
          6 hlineto
          -49 5 -52 41 -9 vhcurveto
          -37 -27 -24 -38 -48 -80 callgsubr
          7 29 28 33 44 21 50 19 17 69 6 62 -18 2 rcurveline
          -65 -7 -17 -50 -25 hhcurveto
          -14 -4 18 23 hvcurveto
          177 vlineto
          166 -30 74 -166 vhcurveto
          107 -313 rmoveto
          -81 -35 -78 -81 -62 -29 44 62 109 99 14 108 -3 vhcurveto
          endchar
        </CharString>
        <CharString name="approxequal">
          -22 139 18 26 18 77 18 26 18 hstemhm
          47 480 hintmask 10101000
          515 338 -33 callgsubr
          hintmask 10111000
          -21 callgsubr
          -51 callgsubr
          hintmask 10101000
          -12 -125 -33 callgsubr
          -21 callgsubr
          hintmask 11101000
          -51 callgsubr
          endchar
        </CharString>
        <CharString name="aring">
          -57 -97 callsubr
          209 610 -80 callsubr
          50 -130 -107 callgsubr
        </CharString>
        <CharString name="asciicircum">
          -105 139 330 hstem
          86 345 vstem
          431 148 rmoveto
          -168 321 rlineto
          -11 hlineto
          -166 -320 15 -10 157 297 157 -297 rlineto
          endchar
        </CharString>
        <CharString name="asciitilde">
          4 230 18 26 18 hstemhm
          52 480 hintmask 10100000
          520 290 -33 callgsubr
          hintmask 11100000
          -21 callgsubr
          -51 callgsubr
          endchar
        </CharString>
        <CharString name="asterisk">
          -254 454 98 12 98 hstemhm
          116 96 hintmask 01100000
          212 671 rmoveto
          26 -21 22 -27 -27 -21 -22 -26 -39 45 -32 3 -24 vhcurveto
          2 24 46 32 39 vvcurveto
          -61 -107 rmoveto
          15 -27 0 83 -56 hhcurveto
          -24 -24 -19 -28 -30 23 -21 36 hvcurveto
          19 19 3 15 hhcurveto
          8 6 -1 -2 5 hvcurveto
          26 hmoveto
          2 5 6 1 8 15 19 -3 18 hhcurveto
          37 23 21 30 28 -24 19 -24 -56 0 -83 -15 -27 hvcurveto
          hintmask 10100000
          -26 -12 rmoveto
          -2 -5 -6 -2 -8 -15 -19 4 -19 hhcurveto
          -36 -23 -22 -29 -28 24 -19 24 56 0 83 15 27 hvcurveto
          -35 -107 rmoveto
          -27 21 -20 27 27 21 20 27 39 -46 30 -2 26 vhcurveto
          -3 -26 -45 -30 -39 vvcurveto
          61 107 rmoveto
          -15 27 0 -83 56 hhcurveto
          24 24 19 28 29 -23 22 -37 hvcurveto
          -18 -19 -4 -15 hhcurveto
          -8 -6 2 2 -5 hvcurveto
          endchar
        </CharString>
        <CharString name="at">
          128 -60 23 76 27 -27 32 172 18 14 107 47 20 75 23 hstemhm
          50 23 110 97 -71 19 199 89 121 23 hintmask 1101011101110000
          516 239 rmoveto
          162 -10 48 -155 -66 -76 -27 -76 vhcurveto
          hintmask 1101111101110000
          -40 29 -31 40 30 26 23 30 29 -18 25 -30 -22 -15 -12 -14 -3 vhcurveto
          -71 callgsubr
          -4 -5 3 6 29 28 44 80 86 5 -65 -94 hvcurveto
          -9 vlineto
          hintmask 1101011110110000
          -23 hlineto
          -123 -98 -24 -95 -67 63 -36 63 74 38 31 62 18 hvcurveto
          6 hlineto
          hintmask 1011011101110000
          -53 30 -40 53 73 59 81 -77 callsubr
          -56 -54 -25 -35 -5 28 23 hvcurveto
          -89 73 rmoveto
          hintmask 1101011110110000
          -85 -30 -44 -55 -32 -30 29 58 56 42 34 86 vhcurveto
          19 hlineto
          endchar
        </CharString>
        <CharString name="atilde">
          -57 -97 callsubr
          173 -35 callsubr
          -81 callgsubr
          68 -191 -107 callgsubr
        </CharString>
        <CharString name="b">
          -12 -20 28 -8 -5 callsubr
          hstemhm
          104 89 224 97 hintmask 01111100
          193 -52 callsubr
          155 hlineto
          hintmask 10111100
          62 -86 callgsubr
          hlineto
          -2 -138 rmoveto
          -59 callsubr
        </CharString>
        <CharString name="backslash">
          -287 -114 827 hstem
          -51 313 vstem
          -30 713 rmoveto
          -21 hlineto
          291 -827 rlineto
          22 hlineto
          endchar
        </CharString>
        <CharString name="bar">
          -220 -205 924 hstem
          170 22 vstem
          192 719 rmoveto
          -22 -924 22 hlineto
          endchar
        </CharString>
        <CharString name="braceleft">
          -8 callsubr
          0 97 15 31 cntrmask 11100000
          hintmask 11101000
          82 238 rmoveto
          51 15 10 35 42 65 -46 47 101 vvcurveto
          hintmask 11111000
          54 18 58 59 14 vhcurveto
          3 12 23 2 15 hhcurveto
          16 vlineto
          -126 -98 -58 -131 hvcurveto
          -129 112 -13 -64 vvcurveto
          -28 -19 -22 -56 vhcurveto
          hintmask 11101000
          -15 vlineto
          56 19 -22 -28 hvcurveto
          -64 -112 -12 -129 vvcurveto
          -131 98 -59 126 vhcurveto
          16 vlineto
          hintmask 11111000
          -15 -23 2 3 -12 hvcurveto
          -59 14 -18 59 54 101 46 46 65 vvcurveto
          42 -10 35 -51 15 vhcurveto
          1 vlineto
          endchar
        </CharString>
        <CharString name="braceright">
          -8 callsubr
          81 31 15 97 cntrmask 11100000
          hintmask 11110000
          142 237 rmoveto
          -51 -15 -10 -35 -42 -65 46 -47 -101 vvcurveto
          hintmask 11111000
          -54 -18 -58 -59 -14 vhcurveto
          -3 -12 -23 -2 -15 hhcurveto
          -16 vlineto
          126 98 58 131 hvcurveto
          129 -112 13 64 vvcurveto
          28 19 22 56 vhcurveto
          hintmask 11110000
          15 vlineto
          -56 -19 22 28 hvcurveto
          64 112 12 129 vvcurveto
          131 -98 59 -126 vhcurveto
          -16 vlineto
          hintmask 11111000
          15 23 -2 -3 12 hvcurveto
          59 -14 18 -59 -54 -101 -46 -46 -65 vvcurveto
          -42 10 -35 51 -15 vhcurveto
          endchar
        </CharString>
        <CharString name="bracketleft">
          -276 -175 16 793 16 hstem
          86 104 vstem
          306 650 rmoveto
          -220 -825 220 16 -116 793 116 hlineto
          endchar
        </CharString>
        <CharString name="bracketright">
          -276 -175 16 793 16 hstem
          116 104 vstem
          634 vmoveto
          116 -793 -116 -16 220 825 -220 hlineto
          endchar
        </CharString>
        <CharString name="breve">
          -295 531 20 hstem
          51 20 152 20 vstem
          147 531 rmoveto
          53 42 42 52 1 hvcurveto
          -20 hlineto
          -41 -2 -33 -33 -41 hhcurveto
          -41 -33 33 41 -2 hvcurveto
          -20 hlineto
          -52 1 42 -42 53 hhcurveto
          endchar
        </CharString>
        <CharString name="brokenbar">
          -361 -120 839 hstem
          100 22 vstem
          122 -120 rmoveto
          352 -22 -352 vlineto
          22 487 rmoveto
          352 -22 -352 vlineto
          endchar
        </CharString>
        <CharString name="bullet">
          -37 224 311 hstem
          122 299 vstem
          271 535 rmoveto
          -80 -69 -68 -89 -87 67 -67 82 80 70 67 87 89 -71 68 -79 hvcurveto
          endchar
        </CharString>
        <CharString name="c">
          -123 -20 28 280 107 65 20 hstem
          56 97 256 19 vstem
          289 460 rmoveto
          -92 callgsubr
          86 -69 35 -86 -148 -69 -102 -2 callgsubr
          69 -108 142 -72 callgsubr
          hvcurveto
          endchar
        </CharString>
        <CharString name="c_h">
          547 -20 28 -8 15 273 107 57 28 -20 20 195 15 hstemhm
          91 97 256 19 132 91 216 89 hintmask 0110111111000000
          324 460 rmoveto
          -92 callgsubr
          86 -69 35 -86 -148 -69 -102 -148 hvcurveto
          hintmask 1010111111000000
          -142 69 -108 142 95 60 68 94 19 -12 callsubr
          -73 -16 -42 -63 -74 hhcurveto
          -114 -24 114 114 hvcurveto
          hintmask 0110111111000000
          112 24 112 112 vhcurveto
          426 -445 rmoveto
          -21 callsubr
          hintmask 0111011111000000
          114 23 142 114 81 0 -110 -81 vhcurveto
          -246 -62 callsubr
          hintmask 0110111111000000
          -53 callgsubr
          endchar
        </CharString>
        <CharString name="c_t">
          208 -20 28 280 107 50 15 0 20 295 18 hstemhm
          56 97 84 18 154 19 139 89 hintmask 1101111110000000
          289 460 rmoveto
          -92 callgsubr
          51 -24 33 -38 18 hvcurveto
          -43 25 -68 48 87 vvcurveto
          94 102 60 97 88 84 -50 -108 vhcurveto
          hintmask 1110111110000000
          -79 -36 -78 -76 vhcurveto
          -18 -72 callsubr
          340 2 callsubr
          98 vlineto
          178 -97 57 -105 -101 -116 -64 -110 vhcurveto
          hintmask 1101111110000000
          -60 33 -51 39 -31 vhcurveto
          2 -11 -13 1 -12 hhcurveto
          -148 -69 -102 -2 callgsubr
          69 -108 142 -72 callgsubr
          hvcurveto
          endchar
        </CharString>
        <CharString name="caron">
          -208 665 -20 hstem
          0 374 vstem
          7 680 -78 callgsubr
        </CharString>
        <CharString name="ccedilla">
          -123 9 callsubr
          31 28 -20 20 7 -21 294 107 65 20 hstemhm
          56 97 33 16 callgsubr
          65 19 hintmask 1110001101100000
          248 -51 rmoveto
          -25 -24 -11 -11 -17 hvcurveto
          hintmask 1101001101100000
          23 61 rlineto
          hintmask 1110011101100000
          -5 19 20 -3 23 hhcurveto
          -72 callgsubr
          -92 callgsubr
          86 -69 35 -86 -148 -69 -102 -148 hvcurveto
          hintmask 1100101111100000
          -113 43 -91 88 -32 vhcurveto
          -33 -89 14 -17 rlineto
          23 15 35 20 31 hhcurveto
          32 45 -91 callgsubr
          vhcurveto
          hintmask 1110001101100000
          73 -57 25 -39 vhcurveto
          endchar
        </CharString>
        <CharString name="cedilla">
          -207 9 callsubr
          hstem
          159 16 callgsubr
          vstem
          184 hmoveto
          0 -20 0 0 vhcurveto
          -37 -95 14 -17 rlineto
          23 15 30 20 36 hhcurveto
          36 41 -91 callgsubr
          73 -55 25 -41 -25 -22 -8 -14 -19 vhcurveto
          endchar
        </CharString>
        <CharString name="cent">
          -101 23 28 237 107 65 19 hstem
          56 97 116 20 120 19 vstem
          289 -62 rmoveto
          86 vlineto
          82 9 52 65 18 87 -18 2 rcurveline
          -73 -16 -42 -63 -74 hhcurveto
          -107 -31 100 107 104 31 98 105 -92 callgsubr
          80 -61 36 -78 4 hvcurveto
          91 -20 -90 vlineto
          -138 -2 -75 -91 -134 vvcurveto
          -132 76 -98 135 vhcurveto
          2 -85 hlineto
          endchar
        </CharString>
        <CharString name="circumflex">
          -208 519 161 hstem
          0 374 vstem
          187 603 -106 callgsubr
          endchar
        </CharString>
        <CharString name="colon">
          -353 -9 117 246 10 callgsubr
          vstem
          56 412 -95 callsubr
          -363 vmoveto
          -29 callsubr
        </CharString>
        <CharString name="comma">
          -330 11 -21 104 19 hstem
          38 16 callgsubr
          vstem
          196 29 rmoveto
          -102 callsubr
          endchar
        </CharString>
        <CharString name="copyright">
          117 -83 24 89 28 190 107 65 20 83 25 hstem
          50 24 101 96 246 19 89 24 vstem
          491 -30 rmoveto
          -18 -38 -43 -11 -45 hhcurveto
          -160 -131 131 160 161 131 130 160 150 110 -105 -146 -125 -97 -89 -110 -103 -44 82 101 100 33 79 93 77 43 -53 -38 -37 callgsubr
          -98 callgsubr
          79 -72 42 -83 -130 -76 -81 -123 -127 77 -79 141 175 81 129 112 153 -114 124 -170 -174 -141 -141 -175 -174 141 -141 174 50 46 11 20 42 hvcurveto
          endchar
        </CharString>
        <CharString name="currency">
          -40 1 -21 36 17 -16 -21 431 17 36 -20 hstemhm
          53 95 246 95 hintmask 11011110
          489 230 rmoveto
          64 -22 51 -36 36 vhcurveto
          82 83 -15 16 -83 -84 rlineto
          31 -39 -50 17 -55 hhcurveto
          -55 -51 -17 -31 -38 hvcurveto
          -83 84 -15 -16 82 -83 rlineto
          -36 -36 -22 -51 -64 vvcurveto
          hintmask 00111110
          -64 22 -51 36 -37 vhcurveto
          -82 -82 rlineto
          hintmask 11011110
          15 -16 83 84 rlineto
          -31 38 51 -17 55 hhcurveto
          55 50 17 31 39 hvcurveto
          83 -84 rlineto
          hintmask 00111110
          15 16 -82 82 rlineto
          hintmask 11011110
          36 37 22 51 64 vvcurveto
          -95 hmoveto
          -113 -32 -84 -91 -91 -32 84 113 113 32 84 91 91 32 -84 -113 vhcurveto
          endchar
        </CharString>
        <CharString name="d">
          -17 -20 28 -8 -5 callsubr
          hstemhm
          56 97 224 89 hintmask 01111100
          532 hmoveto
          15 -66 688 vlineto
          -99 callgsubr
          -277 -6 hlineto
          -11 callsubr
          hvcurveto
          hintmask 10111100
          -6 callsubr
          vhcurveto
          6 hlineto
          hintmask 01111100
          -91 vlineto
          2 229 rmoveto
          hintmask 10111100
          -39 callsubr
        </CharString>
        <CharString name="dagger">
          -50 439 17 hstemhm
          248 36 -27 18 hintmask 11000000
          257 -111 rmoveto
          18 hlineto
          18 485 rlineto
          49 2 17 16 29 -16 callgsubr
          hintmask 10100000
          -67 callsubr
          hintmask 11000000
          42 15 51 45 hhcurveto
          29 17 -17 -48 2 hvcurveto
          endchar
        </CharString>
        <CharString name="daggerdbl">
          -50 144 17 278 17 hstemhm
          242 46 -31 18 hintmask 11010000
          hintmask 11100000
          346 300 rmoveto
          0 -58 35 43 vvcurveto
          49 24 12 29 vhcurveto
          -16 callgsubr
          hintmask 11010000
          -67 callsubr
          hintmask 11100000
          42 15 51 45 hhcurveto
          29 22 -13 -49 -45 -47 -29 -7 -3 hvcurveto
          6 -4 48 -29 -44 vvcurveto
          -49 -22 -13 -29 vhcurveto
          -45 -15 51 -42 hhcurveto
          -33 -26 -26 -32 -33 26 -26 33 hvcurveto
          hintmask 11010000
          48 -4 49 71 hhcurveto
          32 21 -22 -24 hvcurveto
          -73 -50 -29 -48 vvcurveto
          -33 26 -25 33 33 26 25 33 vhcurveto
          48 -50 29 73 vvcurveto
          24 21 22 32 vhcurveto
          71 -4 -49 48 hhcurveto
          33 26 26 33 32 -26 26 -33 hvcurveto
          hintmask 11100000
          -42 -15 -51 -45 hhcurveto
          -29 -24 12 49 43 58 35 0 hvcurveto
          endchar
        </CharString>
        <CharString name="degree">
          -302 436 31 170 31 hstem
          24 31 170 31 vstem
          24 552 rmoveto
          -64 52 -52 64 64 52 52 64 64 -52 52 -64 -64 -52 -52 -64 vhcurveto
          31 hmoveto
          47 38 38 47 47 38 -38 -47 -47 -38 -38 -47 -47 -38 38 47 vhcurveto
          endchar
        </CharString>
        <CharString name="dieresis">
          -162 550 121 hstem
          60 -13 callgsubr
          vstem
          239 611 -107 callsubr
          endchar
        </CharString>
        <CharString name="divide">
          -74 -10 21 120 22 73 21 78 21 120 22 hstem
          172 21 120 22 vstem
          172 406 -58 callsubr
          -21 -335 -58 callsubr
          298 176 -46 callsubr
        </CharString>
        <CharString name="dollar">
          -140 -10 18 482 18 hstemhm
          62 67 -65 13 127 20 -11 20 100 57 -32 12 hintmask 11011001
          224 -62 rmoveto
          52 1 vlineto
          hintmask 11010110
          91 74 58 98 98 -84 33 -73 34 hvcurveto
          177 vlineto
          hintmask 11100101
          71 -10 38 -58 14 -77 rrcurveto
          14 165 -12 hlineto
          -17 -2 -6 -14 -18 hhcurveto
          -20 -32 23 6 -47 hvcurveto
          64 -20 -62 -2 vlineto
          -76 -73 -54 -85 hvcurveto
          hintmask 11101001
          -90 72 -35 70 -32 vhcurveto
          -203 vlineto
          hintmask 11011010
          -85 11 -29 72 -12 81 rrcurveto
          -14 -183 13 hlineto
          17 2 14 14 17 hhcurveto
          20 27 -23 -6 47 hvcurveto
          -54 vlineto
          23 70 rmoveto
          -3 195 hlineto
          58 -27 51 -28 -60 vvcurveto
          -60 -58 -20 -48 vhcurveto
          hintmask 11100101
          -98 410 rmoveto
          42 39 30 43 vhcurveto
          2 -170 hlineto
          -47 23 -37 26 49 vvcurveto
          endchar
        </CharString>
        <CharString name="dotaccent">
          -377 518 121 hstem
          41 121 vstem
          41 579 rmoveto
          -33 27 -28 33 33 28 28 33 33 -28 27 -33 -33 -27 -27 -33 vhcurveto
          endchar
        </CharString>
        <CharString name="dotlessi">
          0 -66 callgsubr
          hstem
          108 89 vstem
          -96 callsubr
          endchar
        </CharString>
        <CharString name="dotlessj">
          -302 -99 callsubr
          endchar
        </CharString>
        <CharString name="e">
          -50 callgsubr
          hstem
          53 97 205 97 vstem
          -105 callsubr
          endchar
        </CharString>
        <CharString name="eacute">
          -50 callgsubr
          hstem
          53 97 205 97 vstem
          -105 callsubr
          181 366 -106 callsubr
          endchar
        </CharString>
        <CharString name="ecircumflex">
          -50 callgsubr
          hstem
          53 97 205 97 vstem
          -105 callsubr
          82 366 -106 callgsubr
          endchar
        </CharString>
        <CharString name="edieresis">
          -50 callgsubr
          70 121 hstemhm
          53 97 -33 -13 callgsubr
          -62 97 hintmask 11111001
          -105 callsubr
          hintmask 11110110
          111 374 -107 callsubr
          endchar
        </CharString>
        <CharString name="egrave">
          -50 callgsubr
          hstem
          53 97 205 97 vstem
          -105 callsubr
          170 282 -101 callgsubr
          endchar
        </CharString>
        <CharString name="eight">
          -21 -20 18 652 20 hstemhm
          75 18 10 93 222 68 -53 18 hintmask 11100100
          287 670 rmoveto
          hintmask 11110100
          -104 -80 -52 -105 -64 35 -47 46 -41 hvcurveto
          hintmask 11101000
          -72 -43 -37 -73 -71 vvcurveto
          -105 75 -89 121 143 72 106 97 84 -56 54 -63 46 vhcurveto
          hintmask 11100100
          52 34 32 57 60 vvcurveto
          78 -56 74 -108 vhcurveto
          hintmask 11101000
          131 -547 rmoveto
          -73 -63 -52 -85 -108 -69 81 96 62 37 75 69 36 vhcurveto
          92 -75 127 -54 -96 vvcurveto
          hintmask 11110100
          -222 428 rmoveto
          66 45 33 58 73 61 -50 -86 -58 -37 -50 -45 -28 vhcurveto
          -76 54 -79 44 75 vvcurveto
          endchar
        </CharString>
        <CharString name="ellipsis">
          37 -10 10 callgsubr
          78 117 78 117 cntrmask 01110000
          56 48 -95 callsubr
          195 hmoveto
          -100 callsubr
          195 hmoveto
          -29 callsubr
        </CharString>
        <CharString name="emdash">
          372 13 callgsubr
          1 947 vstem
          948 247 rmoveto
          -947 -21 947 hlineto
          endchar
        </CharString>
        <CharString name="endash">
          -98 13 callgsubr
          5 474 vstem
          479 247 -46 callsubr
        </CharString>
        <CharString name="eogonek">
          -92 -44 callsubr
          195 -45 callgsubr
          hstemhm
          53 97 66 19 21 100 -1 97 hintmask 0011111101000000
          276 -22 callgsubr
          -146 -77 -104 -146 -144 68 -106 144 hvcurveto
          11 hlineto
          -36 -27 -24 -38 -47 vvcurveto
          -42 26 -41 49 vhcurveto
          hintmask 0011111110000000
          -25 callsubr
          hvcurveto
          hintmask 0101111110000000
          -62 callgsubr
          hintmask 1001111110000000
          -73 callsubr
          vhcurveto
          hintmask 1001111101000000
          -24 callgsubr
          -43 callsubr
          hvcurveto
          8 32 30 36 51 20 70 27 38 55 16 70 -18 2 rcurveline
          -73 -18 -46 -63 -82 hhcurveto
          -100 -38 82 100 hvcurveto
          29 47 vlineto
          123 132 10 123 hvcurveto
          hintmask 0011111101000000
          91 -85 37 -91 vhcurveto
          -126 -243 rmoveto
          28 vlineto
          92 25 106 92 63 25 -48 -63 -99 -71 -16 -99 vhcurveto
          endchar
        </CharString>
        <CharString name="equal">
          60 144 21 144 21 hstem
          83 474 vstem
          83 144 rmoveto
          474 21 -474 hlineto
          474 165 -46 callsubr
        </CharString>
        <CharString name="eth">
          -76 -21 17 402 17 245 -20 hstem
          53 96 208 96 vstem
          389 635 rmoveto
          -103 -49 -47 31 -56 25 -65 18 rlinecurve
          -6 -15 51 -21 46 -25 38 -31 rlinecurve
          -100 -47 8 -19 109 51 42 -40 29 -49 7 -62 rlinecurve
          -8 -4 rlineto
          11 -24 -27 6 -30 hhcurveto
          -120 -80 -99 -119 -119 80 -99 120 124 76 127 136 153 -52 106 -96 72 hvcurveto
          92 43 rlineto
          -40 -419 rmoveto
          -106 -15 -95 -89 -89 -15 95 106 106 15 95 89 89 15 -95 -106 vhcurveto
          endchar
        </CharString>
        <CharString name="exclam">
          -301 -10 117 563 -20 hstemhm
          82 117 -67 16 hintmask 11010000
          hintmask 11100000
          199 48 rmoveto
          33 -25 26 -33 -33 -26 -26 -33 -33 26 -25 33 33 25 25 33 vhcurveto
          hintmask 11010000
          -51 152 rmoveto
          235 50 115 61 vvcurveto
          30 -18 29 -40 -40 -18 -29 -30 vhcurveto
          -61 50 -115 -235 vvcurveto
          endchar
        </CharString>
        <CharString name="exclamdown">
          -301 363 117 hstemhm
          82 117 -66 16 hintmask 10100000
          hintmask 11000000
          82 422 rmoveto
          -33 25 -26 33 33 26 26 33 33 -26 25 -33 -33 -25 -25 -33 vhcurveto
          hintmask 10100000
          51 -152 rmoveto
          -235 -50 -115 -61 vvcurveto
          -30 18 -29 40 40 18 29 30 vhcurveto
          61 -50 115 235 vvcurveto
          endchar
        </CharString>
        <CharString name="f">
          -271 0 -66 callgsubr
          93 53 -53 107 32 18 hstemhm
          109 89 -18 88 21 18 hintmask 11011101
          226 692 rmoveto
          37 26 -28 -33 hvcurveto
          hintmask 11101101
          -5 0 -6 -2 -5 vhcurveto
          -6 -2 -3 -3 -6 hhcurveto
          -5 -3 4 4 hvcurveto
          4 1 4 3 vvcurveto
          hintmask 11011011
          19 -14 16 -27 -30 -18 -25 -27 -32 24 -23 34 vhcurveto
          hintmask 11011101
          40 29 37 39 44 -34 37 -48 -71 -45 -55 -127 hvcurveto
          -94 callsubr
          54 25 41 56 vhcurveto
          endchar
        </CharString>
        <CharString name="f1_dotlessi">
          0 -66 callgsubr
          hstem
          108 89 vstem
          -96 callsubr
          endchar
        </CharString>
        <CharString name="f1_dotlessj">
          -302 -99 callsubr
          endchar
        </CharString>
        <CharString name="f2">
          -273 0 -66 callgsubr
          95 -65 callsubr
          hintmask 11101101
          hintmask 11110101
          309 -6 callgsubr
          hintmask 11101101
          14 -17 -22 7 -20 hhcurveto
          -68 -43 -58 -124 hvcurveto
          -94 callsubr
          52 24 43 53 vhcurveto
          hintmask 11101011
          9 10 -2 -4 9 hvcurveto
          -53 -11 -20 -29 -32 vvcurveto
          -37 27 -22 33 -3 callsubr
          vhcurveto
          hintmask 11110011
          -25 callgsubr
          -3 -48 -85 callgsubr
        </CharString>
        <CharString name="f_b">
          264 -20 28 -32 callgsubr
          -8 28 75 -65 callsubr
          73 89 224 97 hintmask 0101110101110000
          -30 callsubr
          hintmask 0110101101110000
          14 -17 -22 7 -20 hhcurveto
          -68 -43 -58 -124 hvcurveto
          -94 callsubr
          52 24 43 53 vhcurveto
          hintmask 0101101011110000
          9 10 -2 -4 9 hvcurveto
          -53 -11 -20 -29 -32 vvcurveto
          -37 27 -22 33 -3 callsubr
          vhcurveto
          hintmask 0101110101110000
          -25 callgsubr
          88 -38 callsubr
          155 hlineto
          hintmask 1001110011110000
          62 -86 callgsubr
          hlineto
          -2 -138 rmoveto
          -81 callsubr
          -178 432 -85 callgsubr
        </CharString>
        <CharString name="f_h">
          280 0 -66 callgsubr
          -8 28 75 -65 callsubr
          73 91 216 89 hintmask 1011101011100000
          535 15 rmoveto
          -98 callsubr
          330 hlineto
          -89 callsubr
          -660 -69 callsubr
          hlineto
          -226 -6 callgsubr
          hintmask 1101011011100000
          14 -17 -22 7 -20 hhcurveto
          -68 -43 -58 -124 hvcurveto
          -94 callsubr
          52 24 43 53 vhcurveto
          hintmask 1011010111100000
          9 10 -2 -4 9 hvcurveto
          -53 -11 -20 -29 -32 vvcurveto
          -37 27 -22 33 -3 callsubr
          vhcurveto
          hintmask 1011100111100000
          -25 callgsubr
          -3 -48 -85 callgsubr
        </CharString>
        <CharString name="f_k">
          186 -13 10 callsubr
          171 15 2 18 75 -65 callsubr
          73 89 62 107 -21 89 -39 17 hintmask 0101011010110010
          hintmask 0111011010110100
          580 276 rmoveto
          hintmask 0100111010110010
          -34 callgsubr
          hintmask 0100111010111010
          -86 callsubr
          hintmask 0110111010110010
          -70 callgsubr
          221 15 -66 236 hlineto
          hintmask 1011011010110100
          -83 callgsubr
          hintmask 0111011010110100
          -4 callgsubr
          hintmask 0101011010110010
          -271 401 rmoveto
          15 -13 vlineto
          -6 -6 0 -1 -5 hvcurveto
          hintmask 0101010110110010
          14 -17 -22 7 -20 hhcurveto
          -68 -43 -58 -124 hvcurveto
          -94 callsubr
          52 24 43 53 vhcurveto
          hintmask 0101010101110010
          9 10 -2 -4 9 hvcurveto
          -53 -11 -20 -29 -32 vvcurveto
          -37 27 -22 33 -3 callsubr
          vhcurveto
          hintmask 0101011001110010
          -25 callgsubr
          -3 -48 -85 callgsubr
        </CharString>
        <CharString name="f_l">
          -17 0 -66 callgsubr
          95 -65 callsubr
          73 89 hintmask 1111010110000000
          -30 callsubr
          hintmask 1110110110000000
          14 -17 -22 7 -20 hhcurveto
          -68 -43 -58 -124 hvcurveto
          -94 callsubr
          52 24 43 53 vhcurveto
          hintmask 1110101110000000
          9 10 -2 -4 9 hvcurveto
          -53 -11 -20 -29 -32 vvcurveto
          -37 27 -22 33 -3 callsubr
          vhcurveto
          hintmask 1111001110000000
          -25 callgsubr
          88 -660 -69 callgsubr
          -180 612 -85 callgsubr
        </CharString>
        <CharString name="f_t">
          51 -21 27 -7 -66 callgsubr
          95 17 120 18 45 17 hstemhm
          109 89 -17 18 110 18 90 89 hintmask 0111111011000000
          hintmask 1011110111000000
          181 -31 callsubr
          -37 25 -43 51 -3 callsubr
          58 -48 25 -39 vhcurveto
          -6 -6 -1 -6 hhcurveto
          32 26 44 14 47 hhcurveto
          63 74 -41 -97 -79 -23 -78 -89 hvcurveto
          -18 -72 callsubr
          340 2 callsubr
          98 vlineto
          166 -86 48 -81 vhcurveto
          hintmask 0111111011000000
          -54 -58 -21 -48 -29 hvcurveto
          -54 -18 -35 -57 -100 vvcurveto
          -94 callsubr
          34 14 30 28 17 vhcurveto
          hintmask 1011110111000000
          -4 -13 -2 -14 -16 vvcurveto
          61 57 rmoveto
          30 37 -20 -45 -35 -27 -20 -25 -34 -24 31 33 20 4 17 6 14 hvcurveto
          3 10 11 2 12 hhcurveto
          endchar
        </CharString>
        <CharString name="five">
          -49 -212 20 63 107 133 42 54 20 153 80 hstemhm
          58 19 -3 17 254 99 -69 12 hintmask 1001101010000000
          hintmask 1101110100000000
          58 -91 rmoveto
          -86 79 -35 86 145 76 96 145 121 -74 77 -121 vhcurveto
          hintmask 1011101010000000
          -61 -52 -26 -48 -38 hvcurveto
          -7 227 296 7 callsubr
          -259 -349 15 hlineto
          54 33 49 42 63 hhcurveto
          hintmask 1101110100000000
          92 19 -103 -92 -105 -33 -99 -105 -89 -41 50 41 -20 callgsubr
          5 3 -3 -6 1 hvcurveto
          -13 3 11 -15 26 hhcurveto
          30 19 22 29 34 -27 22 -30 -40 -29 -29 -40 hvcurveto
          endchar
        </CharString>
        <CharString name="four">
          -1 0 25 hstem
          37 38 203 89 vstem
          37 hmoveto
          241 -194 89 194 87 25 -87 448 hlineto
          -17 -8 -18 -3 -19 -2 -31 -185 -135 -155 -110 -105 rrcurveto
          38 14 rmoveto
          74 68 78 99 46 94 rrcurveto
          5 -265 -203 hlineto
          endchar
        </CharString>
        <CharString name="fraction">
          -288 -206 925 hstem
          -106 570 vstem
          -106 -206 rmoveto
          26 hlineto
          544 925 rlineto
          -25 hlineto
          endchar
        </CharString>
        <CharString name="g">
          -70 -235 16 97 82 -24 83 56 16 373 16 118 19 hstemhm
          46 48 -28 92 154 18 33 107 -102 92 -32 48 hintmask 1001110110100000
          hintmask 1001110111000000
          388 598 rmoveto
          6 4 -3 14 callsubr
          -3 -6 -1 hvcurveto
          -14 -3 -12 -13 -22 -11 callgsubr
          -50 -37 -32 -52 -22 8 -23 16 -18 vhcurveto
          -2 -2 rlineto
          7 -22 -24 5 -25 hhcurveto
          -116 -81 -86 -116 -81 39 -66 63 -33 hvcurveto
          hintmask 1011111010010000
          -61 -21 -61 -43 -64 vvcurveto
          -48 23 -33 42 -9 vhcurveto
          -73 29 62 -42 82 hhcurveto
          101 91 54 101 62 -37 37 -62 hvcurveto
          hintmask 1101111010100000
          -60 -96 -59 -60 hhcurveto
          -35 -32 13 35 41 53 28 41 12 hvcurveto
          -9 22 26 -5 27 hhcurveto
          116 81 87 116 72 -32 58 -51 38 hvcurveto
          -28 21 -19 31 35 vvcurveto
          hintmask 1001110111000000
          41 29 24 29 vhcurveto
          hintmask 1101110110100000
          -20 -320 rmoveto
          -94 -11 -93 -94 -94 -11 93 94 94 11 92 94 94 11 -92 -94 vhcurveto
          -234 -400 rmoveto
          hintmask 1011110110010000
          60 112 58 60 hhcurveto
          36 26 -22 -36 -67 -77 -30 -67 hvcurveto
          hintmask 1101110110100000
          -65 -66 35 62 -20 hvcurveto
          endchar
        </CharString>
        <CharString name="germandbls">
          20 -20 20 0 16 41 107 468 18 hstemhm
          92 104 65 19 -13 42 91 112 6 64 hintmask 0101110010000000
          hintmask 1001110010000000
          409 -20 rmoveto
          109 64 74 74 134 -194 9 -62 68 hvcurveto
          hintmask 0101101100000000
          -12 13 -5 11 11 vvcurveto
          18 15 14 28 12 vhcurveto
          59 25 101 4 88 vvcurveto
          89 -82 26 -128 -129 -81 -66 -94 vhcurveto
          -474 -53 -16 214 16 -57 474 vlineto
          108 34 34 72 52 46 -32 -72 vhcurveto
          -110 -133 13 -89 vvcurveto
          hintmask 1001101010000000
          -150 251 22 -120 vvcurveto
          -53 -36 -41 -79 vhcurveto
          hintmask 1011110010000000
          -98 -25 51 32 -1 callsubr
          4 5 3 -3 -6 1 hvcurveto
          -17 4 12 -9 22 hhcurveto
          30 20 25 29 30 -26 23 -30 -40 -29 -31 -40 hvcurveto
          hintmask 1001110010000000
          -82 72 -31 76 vhcurveto
          endchar
        </CharString>
        <CharString name="grave">
          -230 21 callsubr
          260 -48 callsubr
          endchar
        </CharString>
        <CharString name="greater">
          -72 51 358 hstem
          432 34 vstem
          466 240 rmoveto
          -456 169 -8 -20 430 -159 -430 -159 8 -20 456 169 rlineto
          endchar
        </CharString>
        <CharString name="greaterequal">
          -88 29 21 hstem
          470 30 vstem
          22 29 rmoveto
          478 21 -478 hlineto
          478 193 rmoveto
          -475 139 rlineto
          -22 vlineto
          445 -130 -447 -130 rlineto
          -22 vlineto
          477 139 rlineto
          endchar
        </CharString>
        <CharString name="guillemotleft">
          -269 65 344 hstem
          5 258 vstem
          5 237 -54 callgsubr
          -17 -172 -54 callgsubr
          endchar
        </CharString>
        <CharString name="guillemotright">
          -269 65 344 hstem
          50 258 vstem
          169 237 -28 callgsubr
          231 -159 -28 callgsubr
          endchar
        </CharString>
        <CharString name="guilsinglleft">
          -381 65 344 hstem
          50 146 vstem
          196 237 rmoveto
          -129 172 -17 -13 119 -159 -119 -159 17 -13 rlineto
          endchar
        </CharString>
        <CharString name="guilsinglright">
          -381 65 344 hstem
          5 146 vstem
          5 237 -54 callgsubr
          endchar
        </CharString>
        <CharString name="h">
          6 0 -5 callsubr
          hstem
          106 91 216 89 -88 callgsubr
          330 hlineto
          -89 callsubr
          -660 -69 callsubr
          hlineto
          endchar
        </CharString>
        <CharString name="hbar">
          53 0 15 437 28 48 19 128 15 hstem
          93 91 216 89 vstem
          44 528 rmoveto
          49 -513 -66 -15 221 15 -98 callsubr
          155 139 19 -139 156 hlineto
          -89 callsubr
          -128 -49 hlineto
          endchar
        </CharString>
        <CharString name="hungarumlaut">
          -147 591 102 hstem
          -8 473 vstem
          459 693 8 callsubr
          -225 17 8 callsubr
          endchar
        </CharString>
        <CharString name="hyphen">
          -273 13 callgsubr
          52 198 vstem
          52 226 rmoveto
          198 21 -198 hlineto
          endchar
        </CharString>
        <CharString name="i">
          0 -66 callgsubr
          11 callsubr
          91 117 -100 89 hintmask 11101000
          -96 callsubr
          hintmask 11110000
          -106 596 rmoveto
          -29 callsubr
        </CharString>
        <CharString name="iacute">
          0 -66 callgsubr
          hstem
          108 89 vstem
          257 -83 callsubr
          120 -46 rmoveto
          -10 -47 -44 -3 -48 hhcurveto
          -21 -68 callsubr
          hlineto
          endchar
        </CharString>
        <CharString name="icircumflex">
          0 -66 callgsubr
          hstem
          108 89 vstem
          -96 callsubr
          -54 588 -106 callgsubr
          endchar
        </CharString>
        <CharString name="idieresis">
          0 -66 callgsubr
          90 121 hstemhm
          -7 121 -6 89 -25 121 hintmask 11101000
          -96 callsubr
          hintmask 11110100
          -25 596 -107 callsubr
          endchar
        </CharString>
        <CharString name="igrave">
          0 -66 callgsubr
          hstem
          108 89 vstem
          -96 callsubr
          20 504 -101 callgsubr
          endchar
        </CharString>
        <CharString name="ij">
          1 -235 18 32 107 78 -66 callgsubr
          11 callsubr
          91 117 -100 89 100 18 21 88 -36 117 -96 89 hintmask 1111101100100000
          -96 callsubr
          hintmask 1111110101000000
          -106 596 -95 callsubr
          297 hmoveto
          -100 callsubr
          hintmask 1111101100100000
          110 -138 -94 callgsubr
          -405 hlineto
          -70 53 -22 -70 vvcurveto
          -56 -20 -39 -56 -39 -32 25 36 5 0 6 2 5 vhcurveto
          6 2 3 3 6 hhcurveto
          5 3 -4 -4 hvcurveto
          -4 -1 -4 -3 vvcurveto
          hintmask 1111101110000000
          -19 14 -16 27 30 18 25 27 32 -24 23 -34 vhcurveto
          hintmask 1111101100100000
          -22 callsubr
        </CharString>
        <CharString name="iogonek">
          -212 46 166 -66 callgsubr
          11 callsubr
          53 19 19 117 -115 100 -85 89 hintmask 11111001
          76 -95 rmoveto
          9 35 38 40 62 20 rrcurveto
          78 -9 callgsubr
          71 -430 -66 -15 96 hlineto
          -49 -27 -36 -44 -58 vvcurveto
          -42 26 -41 49 vhcurveto
          hintmask 11111010
          -25 callsubr
          26 -17 28 -36 -24 -23 -16 -29 hvcurveto
          -73 callsubr
          vhcurveto
          hintmask 11111001
          -24 callgsubr
          -43 callsubr
          hvcurveto
          hintmask 11111100
          15 706 rmoveto
          -29 callsubr
        </CharString>
        <CharString name="itilde">
          -282 0 -66 callgsubr
          100 12 callsubr
          3 15 90 89 84 15 hintmask 11011110
          -96 callsubr
          -118 656 -93 callsubr
          hintmask 11101110
          50 26 50 60 hvcurveto
          -15 hlineto
          hintmask 11011110
          -31 -13 -20 -37 vhcurveto
          hintmask 11101110
          -42 -61 52 -49 hhcurveto
          endchar
        </CharString>
        <CharString name="j">
          -295 -235 18 32 107 523 15 11 callsubr
          1 18 21 88 -36 117 -96 89 hintmask 11111001
          hintmask 11111010
          92 611 -95 callsubr
          hintmask 11111001
          110 -138 -94 callgsubr
          -405 hlineto
          -70 53 -22 -70 vvcurveto
          -56 -20 -39 -56 -39 -32 25 36 5 0 6 2 5 vhcurveto
          6 2 3 3 6 hhcurveto
          5 3 -4 -4 hvcurveto
          -4 -1 -4 -3 vvcurveto
          hintmask 11111100
          -19 14 -16 27 30 18 25 27 32 -24 23 -34 vhcurveto
          hintmask 11111001
          -22 callsubr
        </CharString>
        <CharString name="jcircumflex">
          -295 -99 callsubr
          -52 656 -106 callgsubr
          endchar
        </CharString>
        <CharString name="k">
          -90 -13 10 callsubr
          188 18 195 15 hstemhm
          104 89 62 107 -21 89 -39 17 hintmask 0101110010000000
          hintmask 0111110100000000
          304 276 rmoveto
          hintmask 0101110010000000
          -34 callgsubr
          hintmask 0101111010000000
          -86 callsubr
          hintmask 0111110010000000
          -70 callgsubr
          221 15 -66 236 hlineto
          hintmask 1011110100000000
          -83 callgsubr
          hintmask 0111110100000000
          -4 callgsubr
          endchar
        </CharString>
        <CharString name="kcedilla">
          -90 9 callsubr
          38 10 callsubr
          188 18 195 15 hstemhm
          104 89 41 107 -86 107 -21 89 -56 18 -1 17 hintmask 1101011100001000
          hintmask 1101111100100000
          304 276 rmoveto
          hintmask 1101011100001000
          -34 callgsubr
          hintmask 1101011101001000
          -86 callsubr
          hintmask 1101011100001000
          -70 callgsubr
          201 hlineto
          -37 -95 14 -17 rlineto
          hintmask 1101111110010000
          23 15 30 20 36 hhcurveto
          32 45 -91 callgsubr
          73 -57 25 -39 -25 -22 -8 -14 -19 vhcurveto
          29 73 rlineto
          15 -66 236 vlineto
          hintmask 1110111100100000
          -83 callgsubr
          hintmask 1101111100100000
          -4 callgsubr
          endchar
        </CharString>
        <CharString name="kgreenlandic">
          -90 -11 16 -5 15 217 19 194 15 2 18 hstemhm
          104 89 52 107 -11 89 -49 17 hintmask 0110110010000000
          305 255 rmoveto
          61 38 32 47 56 vvcurveto
          52 -32 32 -50 vhcurveto
          hintmask 0110111010000000
          -86 callsubr
          hintmask 0110110010000000
          29 25 -25 -41 -90 -98 -56 -90 -12 hvcurveto
          hintmask 0111010100000000
          235 vlineto
          -10 -47 -44 -3 -48 hhcurveto
          -21 -68 callsubr
          206 hlineto
          5 32 26 6 6 hhcurveto
          6 hlineto
          58 20 -42 -80 hvcurveto
          hintmask 1010110100000000
          -22 vlineto
          -78 41 -21 45 12 20 1 6 22 vhcurveto
          -2 12 rlineto
          -2 -7 -6 -1 -5 hhcurveto
          -25 -6 22 49 hvcurveto
          20 vlineto
          hintmask 0110110010000000
          116 -34 39 -90 vhcurveto
          endchar
        </CharString>
        <CharString name="l">
          -291 0 15 660 15 hstem
          106 89 vstem
          195 703 rmoveto
          -23 callgsubr
          hlineto
          endchar
        </CharString>
        <CharString name="ldot">
          -208 0 15 285 117 258 15 hstem
          149 89 65 117 vstem
          238 703 rmoveto
          -23 callgsubr
          hlineto
          65 343 rmoveto
          -29 callsubr
        </CharString>
        <CharString name="less">
          -111 51 358 hstem
          14 34 vstem
          14 220 rmoveto
          456 -169 8 20 -430 159 430 159 -8 20 -456 -169 rlineto
          endchar
        </CharString>
        <CharString name="lessequal">
          -88 29 21 hstem
          -6 30 vstem
          472 50 rmoveto
          -478 -21 478 hlineto
          -478 188 rmoveto
          477 -139 rlineto
          22 vlineto
          -447 130 445 130 rlineto
          22 vlineto
          -475 -139 rlineto
          endchar
        </CharString>
        <CharString name="logicalnot">
          -69 242 21 hstem
          456 22 vstem
          34 242 rmoveto
          422 -146 22 167 -444 hlineto
          endchar
        </CharString>
        <CharString name="lozenge">
          -36 639 28 0 -20 hstemhm
          70 376 hintmask 01100000
          446 337 rmoveto
          -183 330 rlineto
          -11 hlineto
          -182 -330 182 -329 rlineto
          11 hlineto
          -172 329 rmoveto
          hintmask 10100000
          167 302 167 -302 -167 -301 rlineto
          endchar
        </CharString>
        <CharString name="lslash">
          -292 0 15 660 15 hstem
          105 89 vstem
          194 703 -94 callgsubr
          -345 hlineto
          -113 -42 rlineto
          -21 vlineto
          113 43 rlineto
          -295 -92 callsubr
          329 vlineto
          105 40 rlineto
          20 vlineto
          -105 -40 rlineto
          endchar
        </CharString>
        <CharString name="m">
          288 0 -66 callgsubr
          -8 28 hstemhm
          106 89 208 84 208 89 cntrmask 00011100
          hintmask 10111100
          261 15 rmoveto
          -21 callsubr
          114 20 142 114 69 5 -80 -74 vhcurveto
          -283 -66 -15 216 15 -66 181 vlineto
          114 20 142 114 69 5 -80 -74 vhcurveto
          -283 -62 callsubr
          124 -20 81 -124 -67 -56 -43 -64 -22 vhcurveto
          -6 hlineto
          67 -14 -40 40 -87 hhcurveto
          -67 -56 -43 -64 -22 hvcurveto
          -6 hlineto
          hintmask 11011100
          100 vlineto
          -27 callgsubr
        </CharString>
        <CharString name="macron">
          -299 570 19 hstem
          2 279 vstem
          2 570 rmoveto
          279 19 -279 hlineto
          endchar
        </CharString>
        <CharString name="minus">
          53 13 callgsubr
          101 474 vstem
          575 247 -46 callsubr
        </CharString>
        <CharString name="mu">
          17 -207 215 -32 callgsubr
          hstemhm
          106 89 43 19 149 89 hintmask 01111100
          406 445 rmoveto
          -181 vlineto
          hintmask 10111100
          -114 -23 -142 -114 -74 0 110 81 vhcurveto
          274 vlineto
          -99 callgsubr
          -260 hlineto
          -251 132 90 -85 -38 -50 0 -50 vvcurveto
          -33 25 -25 33 33 26 25 33 vhcurveto
          hintmask 01111100
          50 -48 0 38 vvcurveto
          71 92 -47 49 124 vhcurveto
          6 -87 157 -9 callgsubr
          hlineto
          endchar
        </CharString>
        <CharString name="multiply">
          -126 57 351 hstem
          62 350 vstem
          70 394 rmoveto
          152 -157 -160 -165 15 -15 160 165 160 -165 15 15 -161 165 151 156 -15 15 -151 -156 -150 156 rlineto
          endchar
        </CharString>
        <CharString name="n">
          6 -14 callsubr
          10 185 120 185 -88 callgsubr
          100 hlineto
          -27 callgsubr
        </CharString>
        <CharString name="nacute">
          6 -14 callsubr
          10 185 120 185 -88 callgsubr
          100 hlineto
          -51 callsubr
          109 -83 callsubr
          endchar
        </CharString>
        <CharString name="nbspace">
          -362 endchar
        </CharString>
        <CharString name="nine">
          9 -210 20 64 108 71 20 390 17 hstemhm
          88 97 -66 19 260 102 hintmask 11110110
          261 -190 rmoveto
          -88 -35 52 39 -20 callgsubr
          5 2 -3 -6 2 hvcurveto
          -17 6 13 -10 20 hhcurveto
          32 18 25 25 30 -21 28 -36 -40 -29 -31 -40 -84 73 -37 82 150 76 139 210 171 -47 170 -161 hvcurveto
          hintmask 11111010
          -124 -80 -100 -126 -121 73 -80 114 43 49 19 40 28 hvcurveto
          3 -72 hlineto
          hintmask 11110110
          -98 -8 -132 -129 vhcurveto
          137 367 rmoveto
          -63 -63 -41 -45 vhcurveto
          hintmask 11111010
          -76 -29 59 140 140 32 51 76 76 29 -50 -140 hvcurveto
          endchar
        </CharString>
        <CharString name="notequal">
          60 0 165 -21 21 144 21 hstemhm
          54 474 hintmask 01110000
          54 144 rmoveto
          196 hlineto
          hintmask 10110000
          -48 -144 rlineto
          22 hlineto
          hintmask 01110000
          48 144 rlineto
          256 21 -249 hlineto
          49 144 rlineto
          200 21 -193 hlineto
          49 144 rlineto
          -22 hlineto
          -49 -144 rlineto
          -259 -21 252 hlineto
          -49 -144 rlineto
          -203 hlineto
          endchar
        </CharString>
        <CharString name="ntilde">
          5 -14 callsubr
          9 185 120 185 vstem
          232 -35 callsubr
          -81 callgsubr
          28 -656 rmoveto
          -98 callsubr
          100 hlineto
          -27 callgsubr
        </CharString>
        <CharString name="numbersign">
          147 -10 171 -21 21 155 21 hstemhm
          71 578 hintmask 01110000
          71 140 rmoveto
          149 -19 callsubr
          173 -19 callsubr
          148 21 -141 hlineto
          52 155 rlineto
          153 21 -146 2 callgsubr
          -173 2 callgsubr
          -151 -21 144 hlineto
          -52 -155 rlineto
          -156 hlineto
          230 155 rmoveto
          173 hlineto
          -52 -155 rlineto
          -173 hlineto
          endchar
        </CharString>
        <CharString name="o">
          -56 callsubr
          -76 callgsubr
          endchar
        </CharString>
        <CharString name="oacute">
          -56 callsubr
          376 -83 callsubr
          77 -539 -102 callgsubr
          endchar
        </CharString>
        <CharString name="ocircumflex">
          -56 callsubr
          -76 callgsubr
          -123 373 -106 callgsubr
          endchar
        </CharString>
        <CharString name="odieresis">
          -36 -20 17 466 17 70 121 hstemhm
          53 97 -26 -13 callgsubr
          -28 97 hintmask 11110010
          -76 callgsubr
          hintmask 11101100
          -93 381 -107 callsubr
          endchar
        </CharString>
        <CharString name="oe">
          251 -20 17 -17 -45 callgsubr
          hstemhm
          53 97 246 97 205 97 hintmask 10111110
          619 -22 callgsubr
          -79 -59 -31 -51 -37 hvcurveto
          51 -37 -58 31 -76 hhcurveto
          -142 -78 -108 -142 -142 78 -108 142 74 58 30 49 37 hvcurveto
          -50 35 55 -29 76 hhcurveto
          102 64 68 94 21 -32 callsubr
          hintmask 01111110
          -73 -18 -46 -63 -82 hhcurveto
          -100 -38 82 100 hvcurveto
          29 47 vlineto
          123 132 10 123 hvcurveto
          hintmask 10111110
          91 -85 37 -91 vhcurveto
          -346 -483 rmoveto
          -111 -12 -53 callsubr
          122 111 107 15 -114 -108 1 hvcurveto
          -22 vlineto
          -108 -1 -15 -114 -107 hhcurveto
          220 240 rmoveto
          28 vlineto
          92 25 106 92 63 25 -48 -63 -99 -71 -16 -99 vhcurveto
          endchar
        </CharString>
        <CharString name="ogonek">
          -261 -44 callsubr
          236 -21 hstemhm
          97 19 21 100 hintmask 00111000
          120 -98 rmoveto
          -26 callgsubr
          -5 18 rcurveline
          -74 -21 -63 -53 -76 vvcurveto
          -42 26 -41 49 vhcurveto
          hintmask 00111100
          -25 callsubr
          hvcurveto
          hintmask 01011100
          -62 callgsubr
          hintmask 10011100
          -73 callsubr
          vhcurveto
          hintmask 10011000
          -24 callgsubr
          hvcurveto
          hintmask 00111000
          -43 callsubr
          vhcurveto
          endchar
        </CharString>
        <CharString name="ograve">
          -56 callsubr
          334 -48 callsubr
          119 -623 -102 callgsubr
          endchar
        </CharString>
        <CharString name="one">
          -161 0 15 hstem
          173 89 vstem
          173 15 rmoveto
          -80 -15 256 15 -87 458 hlineto
          -17 -8 -18 -3 -19 -2 -13 -70 -46 -25 -68 -20 5 -16 rcurveline
          30 8 31 12 26 17 rrcurveto
          endchar
        </CharString>
        <CharString name="onehalf">
          199 20 70 149 87 -35 18 58 18 271 -20 27 -20 hstemhm
          149 67 205 20 -10 18 156 74 -1 13 hintmask 1011011010100000
          hintmask 1101011011000000
          547 385 rmoveto
          -72 -44 -35 -56 -8 callgsubr
          -11 -12 -13 -2 hvcurveto
          -5 -1 -2 -4 -1 callgsubr
          -2 4 6 28 21 37 65 52 18 -34 -52 hvcurveto
          hintmask 1011011101000000
          -112 -184 -13 -106 vvcurveto
          -30 vlineto
          hintmask 1011011100100000
          270 16 callsubr
          -104 hlineto
          -70 -12 -13 -19 -13 hvcurveto
          -7 2 rlineto
          hintmask 1011011101000000
          9 95 229 -16 148 vvcurveto
          hintmask 1101011011000000
          71 -61 27 -71 vhcurveto
          -370 -375 rmoveto
          25 hlineto
          hintmask 1011101010100000
          -4 callsubr
          -388 -347 rmoveto
          -60 -18 193 18 -66 hlineto
          hintmask 1011011010100000
          354 vlineto
          -60 callgsubr
          endchar
        </CharString>
        <CharString name="onequarter">
          117 115 24 152 18 347 -20 27 -20 hstemhm
          149 67 159 33 97 67 hintmask 11011110
          177 10 rmoveto
          25 hlineto
          -4 callsubr
          -388 -347 rmoveto
          -60 -18 193 18 -66 354 hlineto
          -60 callgsubr
          226 -459 rmoveto
          130 -95 hlineto
          hintmask 11101110
          67 95 47 24 -47 243 hlineto
          -7 callgsubr
          hintmask 11011110
          -17 callgsubr
          endchar
        </CharString>
        <CharString name="onesuperior">
          -320 227 21 43 18 354 -20 hstem
          99 67 vstem
          99 309 rmoveto
          -60 -18 193 18 -66 354 hlineto
          -60 callgsubr
          -81 -347 -38 callgsubr
          endchar
        </CharString>
        <CharString name="ordfeminine">
          -242 219 21 60 21 -21 32 121 13 19 75 23 14 hstemhm
          30 77 -65 13 12 62 61 72 34 14 hintmask 1101010101100000
          37 219 -38 callgsubr
          101 357 rmoveto
          -48 -48 -21 -48 hvcurveto
          hintmask 1101110101100000
          -27 22 -16 22 vhcurveto
          hintmask 1101110111100000
          21 22 14 25 20 -11 16 -21 -14 -14 -7 -20 -2 hvcurveto
          -4 -2 -4 -4 -3 -3 2 6 vhcurveto
          hintmask 1101010101100000
          18 16 32 55 58 6 -35 -59 vhcurveto
          -23 vlineto
          hintmask 1101011001100000
          -78 2 -82 -13 -78 vvcurveto
          -45 25 -32 60 55 23 27 51 10 vhcurveto
          4 hlineto
          hintmask 1011010101100000
          -41 1 13 -37 32 hhcurveto
          41 12 49 44 4 hvcurveto
          -14 1 rlineto
          -32 -2 -11 -30 -11 hhcurveto
          -7 -3 9 15 hvcurveto
          112 vlineto
          hintmask 1101010101100000
          102 -32 27 -92 vhcurveto
          52 -185 rmoveto
          -48 -11 -43 -39 vhcurveto
          hintmask 1101011001100000
          -28 -5 32 27 35 20 40 63 -2 hvcurveto
          endchar
        </CharString>
        <CharString name="ordmasculine">
          -240 227 21 52 12 273 12 hstem
          30 79 124 79 vstem
          52 227 -38 callgsubr
          119 337 rmoveto
          49 13 -58 -79 -79 -13 -57 -49 -49 -13 57 79 79 13 58 49 hvcurveto
          -285 vmoveto
          85 56 50 98 98 -56 51 -85 -85 -56 -51 -98 -98 56 -50 85 hvcurveto
          endchar
        </CharString>
        <CharString name="oslash">
          -36 -20 17 19 -21 468 17 hstemhm
          53 97 246 97 hintmask 10111000
          273 -20 rmoveto
          142 78 108 142 92 -33 78 -62 43 hvcurveto
          33 71 rlineto
          -25 hlineto
          -28 -59 rlineto
          16 -29 -36 9 -40 hhcurveto
          -142 -78 -108 -142 hvcurveto
          hintmask 01111000
          -102 40 -85 75 -39 vhcurveto
          -35 -76 rlineto
          24 hlineto
          31 67 rlineto
          hintmask 10111000
          -9 25 28 -6 32 hhcurveto
          -123 250 rmoveto
          111 12 122 111 42 27 -18 -28 19 vhcurveto
          -175 -376 rlineto
          -31 45 -5 74 70 vvcurveto
          246 hmoveto
          -111 -12 -122 -111 -31 -23 9 16 -18 vhcurveto
          173 370 rlineto
          19 -45 3 -60 -57 vvcurveto
          endchar
        </CharString>
        <CharString name="otilde">
          -36 -20 17 466 17 80 12 callsubr
          53 97 -22 15 253 97 -87 15 hintmask 11010101
          204 -35 callsubr
          hintmask 11100101
          50 26 50 60 hvcurveto
          -15 hlineto
          hintmask 11010101
          -31 -13 -20 -37 vhcurveto
          hintmask 11100101
          -42 -61 52 -49 hhcurveto
          69 -691 rmoveto
          hintmask 11010101
          142 78 108 142 hvcurveto
          hintmask 11011010
          142 -78 108 -142 -142 -78 -108 -142 -142 78 -108 142 vhcurveto
          123 250 rmoveto
          -111 -12 -122 -111 -111 -12 -53 callsubr
          -53 callsubr
          -122 -111 vhcurveto
          endchar
        </CharString>
        <CharString name="p">
          -9 callsubr
          101 89 224 97 hintmask 11011100
          190 -200 rmoveto
          262 -86 callgsubr
          hlineto
          hintmask 11101100
          104 vlineto
          -99 callgsubr
          -645 -90 callsubr
          hlineto
          -68 431 rmoveto
          hintmask 11011100
          -59 callsubr
        </CharString>
        <CharString name="paragraph">
          -239 -235 17 22 88 751 16 -15 26 hstemhm
          97 51 14 47 37 20 hintmask 10100110
          246 -81 rmoveto
          -57 -4 -80 -68 vhcurveto
          hintmask 10101110
          -15 -11 3 11 5 4 3 4 hvcurveto
          4 4 -1 3 hhcurveto
          hintmask 11100110
          19 16 14 27 30 -23 18 -27 -32 -23 -25 -34 hvcurveto
          hintmask 10100110
          -40 35 -28 39 57 38 39 119 vhcurveto
          720 36 16 -29 vlineto
          -60 -11 11 -47 hhcurveto
          hintmask 10010110
          -93 -58 -64 -78 -77 55 -59 81 7 7 0 1 8 hvcurveto
          -476 vlineto
          38 -7 8 -21 1 -1 rrcurveto
          760 vlineto
          hintmask 10100110
          0 23 -4 14 vhcurveto
          endchar
        </CharString>
        <CharString name="parenleft">
          22 callgsubr
          70 97 vstem
          167 247 rmoveto
          242 88 195 168 vhcurveto
          16 vlineto
          -239 -114 -219 -234 -233 114 -219 239 hvcurveto
          16 vlineto
          -168 -88 195 241 hvcurveto
          endchar
        </CharString>
        <CharString name="parenright">
          22 callgsubr
          256 97 vstem
          256 247 rmoveto
          -241 -88 -195 -168 vhcurveto
          -16 vlineto
          239 114 219 233 234 -114 219 -239 hvcurveto
          -16 vlineto
          168 88 -195 -242 hvcurveto
          endchar
        </CharString>
        <CharString name="percent">
          397 -20 18 227 18 184 18 136 18 73 18 hstem
          40 90 214 90 111 -96 callgsubr
          endchar
        </CharString>
        <CharString name="period">
          -353 -10 10 callgsubr
          vstem
          56 48 rmoveto
          -29 callsubr
        </CharString>
        <CharString name="periodcentered">
          -305 203 117 hstem
          80 117 vstem
          80 261 rmoveto
          -29 callsubr
        </CharString>
        <CharString name="perthousand">
          859 -20 18 227 18 184 18 136 18 73 18 hstem
          40 90 214 90 111 90 214 90 68 -96 callgsubr
          1073 -12 rmoveto
          -121 -75 -110 -123 -122 75 -110 121 123 75 110 122 123 -75 110 -123 hvcurveto
          -106 -233 rmoveto
          95 13 120 93 95 13 -120 -95 -94 -13 -120 -95 -93 -13 120 94 vhcurveto
          endchar
        </CharString>
        <CharString name="plus">
          52 21 -21 13 callgsubr
          307 20 vstem
          80 226 rmoveto
          227 -226 20 226 227 21 -227 227 -20 -227 -227 hlineto
          endchar
        </CharString>
        <CharString name="plusminus">
          33 30 21 225 21 hstem
          310 20 vstem
          83 276 rmoveto
          227 -176 20 176 227 21 -227 177 -20 -177 -227 hlineto
          474 -246 -46 callsubr
        </CharString>
        <CharString name="q">
          -9 callsubr
          56 97 224 89 hintmask 11011100
          311 -200 rmoveto
          -46 callgsubr
          15 -66 vlineto
          hintmask 11101100
          645 71 15 -21 vlineto
          -48 -44 3 10 -47 hvcurveto
          hintmask 11011100
          -75 -6 vlineto
          -11 callsubr
          -6 callsubr
          hvcurveto
          6 -291 hlineto
          2 429 rmoveto
          -39 callsubr
        </CharString>
        <CharString name="question">
          -178 -10 117 93 18 268 107 57 20 hstemhm
          4 19 96 23 4 117 -11 103 hintmask 11111101
          hintmask 11111010
          146 48 -95 callsubr
          hintmask 11111101
          19 622 rmoveto
          -80 -81 -33 -80 -40 29 -31 40 30 26 23 30 29 -18 25 -30 -22 -15 -12 -14 -3 hvcurveto
          -71 callgsubr
          -4 -5 3 6 30 30 53 96 69 34 -47 -69 hvcurveto
          -110 -133 -51 -91 vvcurveto
          -49 36 -33 49 42 34 22 31 18 vhcurveto
          -15 10 rlineto
          -28 -15 -28 -17 -34 hhcurveto
          -39 -25 26 40 hvcurveto
          80 213 36 139 vvcurveto
          104 -87 27 -103 vhcurveto
          endchar
        </CharString>
        <CharString name="questiondown">
          -178 -200 20 57 107 268 18 11 callsubr
          49 103 -11 117 4 23 96 19 hintmask 11111011
          hintmask 11110101
          258 422 rmoveto
          33 -25 25 -33 -33 -26 -25 -33 -33 26 -26 33 33 25 26 33 vhcurveto
          hintmask 11111011
          -19 -622 rmoveto
          80 81 33 80 40 -29 31 -42 callgsubr
          -30 -30 -53 -96 -69 -34 47 69 hvcurveto
          110 133 51 91 vvcurveto
          49 -36 33 -49 -42 -34 -22 -31 -18 vhcurveto
          15 -10 rlineto
          28 15 28 17 34 hhcurveto
          39 25 -26 -40 hvcurveto
          -80 -213 -36 -139 vvcurveto
          -104 87 -27 103 vhcurveto
          endchar
        </CharString>
        <CharString name="quotedbl">
          -384 488 212 hstem
          40 19 74 19 vstem
          40 700 rmoveto
          11 callgsubr
          74 hmoveto
          11 callgsubr
          endchar
        </CharString>
        <CharString name="quotedblbase">
          -115 11 -21 104 19 hstem
          38 16 callgsubr
          57 16 callgsubr
          vstem
          196 29 rmoveto
          -102 callsubr
          215 hmoveto
          -102 callsubr
          endchar
        </CharString>
        <CharString name="quotedblleft">
          -169 480 19 hstemhm
          45 18 33 107 27 18 33 107 hintmask 11010000
          45 564 rmoveto
          -52 37 -32 50 vhcurveto
          hintmask 11110000
          -67 callgsubr
          185 hmoveto
          -52 37 -32 50 vhcurveto
          hintmask 11011000
          -67 callgsubr
          endchar
        </CharString>
        <CharString name="quotedblright">
          -169 670 19 hstemhm
          25 16 callgsubr
          27 16 callgsubr
          hintmask 10101000
          368 605 rmoveto
          52 -37 32 -50 vhcurveto
          hintmask 10111000
          -90 callgsubr
          hvcurveto
          -84 callgsubr
          29 29 -24 -41 -47 -38 -40 -41 -23 vhcurveto
          9 -15 rlineto
          hintmask 10101000
          46 26 42 44 55 vvcurveto
          -185 hmoveto
          52 -37 32 -50 vhcurveto
          hintmask 11101000
          -90 callgsubr
          hvcurveto
          -84 callgsubr
          29 29 -24 -41 -47 -38 -40 -41 -23 vhcurveto
          9 -15 rlineto
          hintmask 10101000
          46 26 42 44 55 vvcurveto
          endchar
        </CharString>
        <CharString name="quoteleft">
          -354 480 19 hstem
          45 18 33 107 vstem
          45 564 rmoveto
          -52 37 -32 50 39 32 28 -66 callsubr
          -13 14 -3 vhcurveto
          6 -1 3 -3 -5 vvcurveto
          -6 -4 -3 -6 -29 -29 24 41 47 38 40 41 23 vhcurveto
          -9 15 rlineto
          -46 -26 -42 -44 -55 vvcurveto
          endchar
        </CharString>
        <CharString name="quoteright">
          -354 670 19 hstem
          25 16 callgsubr
          vstem
          183 605 rmoveto
          -102 callsubr
          endchar
        </CharString>
        <CharString name="quotesinglbase">
          -330 11 -21 104 19 hstem
          38 16 callgsubr
          vstem
          196 29 rmoveto
          -102 callsubr
          endchar
        </CharString>
        <CharString name="quotesingle">
          -160 488 212 hstem
          177 19 vstem
          177 700 rmoveto
          11 callgsubr
          endchar
        </CharString>
        <CharString name="r">
          -174 0 -15 callsubr
          hstemhm
          108 89 199 19 hintmask 11011100
          396 -87 callsubr
          hintmask 11101100
          -60 callsubr
          hintmask 11011100
          -27 callsubr
          endchar
        </CharString>
        <CharString name="rcaron">
          -149 0 -15 callsubr
          185 -20 hstemhm
          133 89 199 19 hintmask 11011110
          421 -87 callsubr
          hintmask 11101110
          -60 callsubr
          hintmask 11011110
          -27 callsubr
          -377 276 -78 callgsubr
        </CharString>
        <CharString name="rcommaaccent">
          -174 -204 18 32 108 46 -15 callsubr
          hstemhm
          108 89 2 20 177 19 hintmask 1011011010000000
          396 -87 callsubr
          hintmask 1011101010000000
          -60 callsubr
          hintmask 1011011010000000
          -27 callsubr
          hintmask 1111010110000000
          -259 -608 rmoveto
          50 2 32 36 49 vvcurveto
          -54 callsubr
          endchar
        </CharString>
        <CharString name="registered">
          128 -60 23 71 31 -25 18 183 18 168 18 79 23 hstemhm
          50 23 159 86 109 89 121 23 hintmask 1011111111000000
          hintmask 1101111111000000
          530 65 rmoveto
          -9 -5 7 20 hvcurveto
          37 vlineto
          82 -28 38 -68 vhcurveto
          4 vlineto
          65 8 33 41 54 vvcurveto
          70 -58 19 -76 vhcurveto
          -197 -18 45 hlineto
          hintmask 1011111111000000
          -369 -45 -18 184 18 -53 183 25 vlineto
          57 27 -19 -72 hvcurveto
          hintmask 1101111111000000
          -31 vlineto
          -53 26 -32 45 96 66 86 -77 callsubr
          -66 -60 -41 hvcurveto
          hintmask 1011111111000000
          -101 287 rmoveto
          -76 -33 -17 -59 vhcurveto
          -19 168 34 hlineto
          66 11 -26 -49 hvcurveto
          endchar
        </CharString>
        <CharString name="ring">
          -413 520 18 85 18 hstem
          25 18 83 18 vstem
          43 581 -80 callsubr
          endchar
        </CharString>
        <CharString name="s">
          -107 -20 20 57 107 142 107 47 20 hstemhm
          62 19 -3 64 217 64 -40 19 hintmask 10011001
          250 -22 callgsubr
          hintmask 10010110
          -55 callsubr
          hintmask 11011010
          -84 callsubr
          hintmask 10010110
          -41 callsubr
          hintmask 10111001
          -75 callgsubr
          hvcurveto
          hintmask 10011001
          79 -73 24 -79 vhcurveto
          endchar
        </CharString>
        <CharString name="s_p">
          460 -215 15 180 20 -20 28 49 107 142 107 32 15 -8 28 -20 19 callgsubr
          84 18 115 64 -40 19 174 89 224 97 hintmask 1100000111011011
          250 -22 callgsubr
          hintmask 1100000110111011
          -55 callsubr
          hintmask 1101000111011011
          -84 callsubr
          hintmask 1100000110111011
          -41 callsubr
          hintmask 1100100111010111
          -75 callgsubr
          43 -22 26 -32 16 hvcurveto
          -43 24 -61 47 88 vvcurveto
          94 102 60 97 92 100 -56 -107 vhcurveto
          hintmask 1100010011011011
          -95 -36 -57 -76 vhcurveto
          -18 -15 71 -645 -92 callsubr
          262 6 hlineto
          -53 25 48 -29 58 hhcurveto
          134 50 119 134 hvcurveto
          hintmask 1100000111011011
          128 -49 119 -128 -68 -47 -46 -65 -23 vhcurveto
          -6 196 hlineto
          -7 callsubr
          -62 28 -49 38 -31 vhcurveto
          2 -14 -14 1 -14 hhcurveto
          413 -249 rmoveto
          hintmask 1010001011011011
          -59 callsubr
        </CharString>
        <CharString name="s_t">
          221 -20 20 -20 27 50 107 142 107 32 15 0 19 callgsubr
          88 18 111 64 -40 19 178 89 hintmask 1000011101101000
          250 -22 callgsubr
          hintmask 1000011011101000
          -55 callsubr
          hintmask 1010011101101000
          -84 callsubr
          hintmask 1000011011101000
          -41 callsubr
          hintmask 1001011101011000
          -75 callgsubr
          42 -21 26 -31 16 hvcurveto
          -43 24 -59 49 87 vvcurveto
          94 102 60 97 92 100 -55 -108 vhcurveto
          hintmask 1000101101101000
          -95 -36 -57 -76 vhcurveto
          -18 -15 71 -318 hlineto
          -86 8 -61 86 60 43 57 56 22 vhcurveto
          hintmask 0100101101101000
          -16 6 rlineto
          -35 -15 -34 -57 -38 hhcurveto
          -27 0 30 68 hvcurveto
          340 2 callsubr
          105 vlineto
          -7 callsubr
          vhcurveto
          hintmask 1000011101101000
          -60 27 -51 37 -31 vhcurveto
          2 -14 -15 1 -15 hhcurveto
          endchar
        </CharString>
        <CharString name="section">
          49 -235 20 67 107 565 107 60 19 hstemhm
          71 76 -50 19 5 76 222 76 -29 19 -16 76 hintmask 1001010010000000
          hintmask 1001100100000000
          71 268 rmoveto
          -230 348 40 -173 vvcurveto
          -79 -69 -41 -94 vhcurveto
          hintmask 1101010100000000
          -98 -40 57 36 -2 hvcurveto
          -1 callsubr
          4 5 3 -3 -6 1 vhcurveto
          -14 3 15 -12 22 hhcurveto
          30 18 25 29 30 -26 23 -30 -40 -29 -31 -40 -82 89 -41 86 132 91 57 122 53 -19 38 -28 31 hvcurveto
          hintmask 1001001001000000
          61 29 36 56 78 230 -348 -50 178 vvcurveto
          62 47 42 72 vhcurveto
          hintmask 1011001010000000
          105 45 -54 -32 14 callsubr
          -4 -98 callgsubr
          82 -92 33 -86 -114 -72 -60 -104 -62 27 -41 39 -31 hvcurveto
          hintmask 1001100100000000
          -68 -24 -48 -48 -72 vvcurveto
          76 36 rmoveto
          48 22 30 38 16 vhcurveto
          hintmask 1001010001000000
          103 -68 159 -20 -125 vvcurveto
          -41 -18 -32 -30 -21 vhcurveto
          hintmask 1001100100000000
          -102 79 -172 17 117 vvcurveto
          endchar
        </CharString>
        <CharString name="semicolon">
          -330 11 -21 104 19 240 117 hstemhm
          38 107 -89 117 5 18 hintmask 11100100
          hintmask 11101000
          56 411 -95 callsubr
          hintmask 11110100
          140 -382 rmoveto
          -102 callsubr
          endchar
        </CharString>
        <CharString name="seven">
          -103 380 79 hstem
          50 17 69 98 192 21 vstem
          50 459 rmoveto
          -126 17 vlineto
          33 2 14 14 38 hhcurveto
          189 hlineto
          99 16 34 2 1 hvcurveto
          -8 -49 -7 -133 -128 -117 rrcurveto
          -92 -84 -55 -82 -94 vvcurveto
          -36 22 -18 26 29 21 18 35 vhcurveto
          267 213 3 368 vvcurveto
          12 -18 vlineto
          -33 -2 -10 -14 -38 hhcurveto
          endchar
        </CharString>
        <CharString name="six">
          9 -20 17 390 20 71 108 64 20 hstemhm
          91 102 213 97 -50 19 hintmask 11111010
          330 650 rmoveto
          88 35 -52 -39 -37 callgsubr
          -5 -2 3 6 -2 hvcurveto
          17 -6 -13 10 -20 hhcurveto
          -32 -18 -25 -25 -30 21 -28 36 40 29 31 40 84 -73 37 -82 -150 -76 -139 -210 -171 47 -170 161 hvcurveto
          hintmask 11111100
          124 80 100 126 121 -73 80 -114 -43 -49 -19 -40 -28 hvcurveto
          -3 72 hlineto
          hintmask 11111010
          98 8 132 129 vhcurveto
          -137 -367 rmoveto
          63 63 41 45 vhcurveto
          hintmask 11111100
          76 29 -59 -140 -140 -32 -51 -76 -76 -29 50 140 hvcurveto
          endchar
        </CharString>
        <CharString name="slash">
          -190 -213 928 hstem
          77 218 vstem
          77 -213 rmoveto
          23 hlineto
          195 928 rlineto
          -23 hlineto
          endchar
        </CharString>
        <CharString name="space">
          -362 endchar
        </CharString>
        <CharString name="sterling">
          -103 -10 97 -86 18 94 36 83 21 67 107 63 20 hstemhm
          20 26 10 107 228 19 10 18 hintmask 0111011010000000
          344 253 rmoveto
          hintmask 0111111110000000
          -144 hlineto
          -20 31 -17 34 53 vvcurveto
          70 38 49 70 87 33 -53 -38 -37 callgsubr
          -19 callgsubr
          6 -1 vhcurveto
          13 -3 -11 15 -26 hhcurveto
          -30 -19 -22 -29 -34 27 -22 33 40 26 29 40 81 -69 40 -86 -105 -94 -47 -95 -52 20 -34 26 -29 hvcurveto
          -54 -21 74 hlineto
          35 -34 38 -27 10 -43 rrcurveto
          12 -26 -27 9 -28 hhcurveto
          hintmask 0111011010000000
          -66 -38 -35 -39 -50 52 -24 43 41 38 16 26 26 hvcurveto
          hintmask 1011011011000000
          -28 27 31 -25 54 hhcurveto
          90 20 103 69 -4 hvcurveto
          -18 hlineto
          -53 -5 -36 -22 -47 hhcurveto
          -27 -26 9 11 -26 hvcurveto
          5 1 5 5 vvcurveto
          47 -19 31 -21 32 vhcurveto
          130 hlineto
          hintmask 0111011010000000
          -230 -213 rmoveto
          -44 -24 22 25 22 18 25 40 43 27 -22 -26 25 hvcurveto
          -24 -12 -25 -22 -48 hhcurveto
          endchar
        </CharString>
        <CharString name="t">
          -253 -20 27 438 15 hstem
          106 89 vstem
          195 445 rmoveto
          2 callsubr
          132 -13 hlineto
          -80 -15 -44 -52 -81 hhcurveto
          -7 -72 callsubr
          endchar
        </CharString>
        <CharString name="thorn">
          -12 -215 15 180 28 444 28 195 15 hstem
          104 89 224 97 vstem
          193 -200 rmoveto
          262 -86 callgsubr
          334 hlineto
          -99 callgsubr
          -875 -90 callsubr
          hlineto
          -68 431 rmoveto
          -59 callsubr
        </CharString>
        <CharString name="three">
          -71 -212 20 65 107 175 22 113 107 63 20 hstemhm
          55 19 1 19 228 92 -72 99 hintmask 1010110010000000
          hintmask 1011101100000000
          230 -61 callsubr
          -93 -83 -59 -86 -36 hvcurveto
          7 -17 rlineto
          9 23 18 10 24 hhcurveto
          hintmask 1110110010000000
          84 33 -89 -84 -95 -43 -79 -95 -89 -41 50 41 -20 callgsubr
          5 3 -3 -6 1 hvcurveto
          -14 3 15 -12 22 hhcurveto
          30 18 25 29 30 -26 23 -30 -40 -29 -31 -40 -86 79 -35 86 133 88 78 133 106 -65 72 -106 hvcurveto
          -2 9 rlineto
          hintmask 1010110100000000
          88 29 58 39 92 vvcurveto
          hintmask 1011101100000000
          94 -90 40 -94 vhcurveto
          endchar
        </CharString>
        <CharString name="threequarters">
          141 115 24 144 6 callgsubr
          82 17 148 74 -60 74 64 33 97 67 hintmask 1101011010100000
          201 10 rmoveto
          25 hlineto
          -4 callsubr
          hintmask 1101011100100000
          -162 -541 rmoveto
          130 -95 67 hlineto
          hintmask 1111011010100000
          95 47 24 -47 243 vlineto
          -7 callgsubr
          -17 callgsubr
          -254 500 rmoveto
          35 34 -18 -46 hvcurveto
          hintmask 1101111100100000
          -60 -74 -21 -46 -19 vhcurveto
          6 -16 rlineto
          -55 callgsubr
          hintmask 1101011100100000
          27 12 21 21 hvcurveto
          hintmask 1101011011100000
          -36 callgsubr
          vhcurveto
          -1 5 rlineto
          -48 callgsubr
          -6 -10 callsubr
          27 36 24 41 hvcurveto
          endchar
        </CharString>
        <CharString name="threesuperior">
          -273 227 21 35 6 callgsubr
          36 17 148 74 -60 74 hintmask 1101011010000000
          hintmask 1101011100000000
          132 639 rmoveto
          35 34 -18 -46 -60 -74 -21 -46 -19 hvcurveto
          6 -16 rlineto
          hintmask 1111011010000000
          -55 callgsubr
          27 12 21 21 -36 callgsubr
          hvcurveto
          -1 5 rlineto
          hintmask 1101111100000000
          -48 callgsubr
          -7 -10 callsubr
          hvcurveto
          hintmask 1101011100000000
          27 36 25 41 vhcurveto
          hintmask 1101011010000000
          -81 -412 -38 callgsubr
          endchar
        </CharString>
        <CharString name="tilde">
          -113 560 12 callsubr
          97 15 263 15 hintmask 01110000
          173 -35 callsubr
          hintmask 10110000
          50 26 50 60 hvcurveto
          -15 hlineto
          hintmask 01110000
          -31 -13 -20 -37 vhcurveto
          hintmask 10110000
          -42 -61 52 -49 hhcurveto
          endchar
        </CharString>
        <CharString name="two">
          -59 0 80 210 107 63 20 hstemhm
          71 18 -5 19 228 97 4 12 hintmask 10110010
          hintmask 11101100
          239 -61 callsubr
          hvcurveto
          hintmask 10110100
          -148 -260 -11 -142 vvcurveto
          -40 vlineto
          hintmask 10110010
          373 7 callsubr
          -156 hlineto
          -94 -24 -17 -25 -21 hvcurveto
          -6 3 rlineto
          hintmask 10110100
          148 339 -42 202 vvcurveto
          hintmask 11101100
          95 -94 36 -95 vhcurveto
          endchar
        </CharString>
        <CharString name="twosuperior">
          -252 227 21 43 70 149 87 41 18 hstemhm
          30 18 -8 18 166 74 -1 13 hintmask 11011001
          hintmask 11110110
          156 656 rmoveto
          -69 -47 -32 -59 -8 callgsubr
          -9 -12 -13 -2 hvcurveto
          -5 -1 -2 -4 -6 0 callsubr
          4 6 28 21 37 65 52 28 -34 -52 hvcurveto
          hintmask 11011010
          -112 -194 -13 -106 vvcurveto
          -30 vlineto
          hintmask 11011001
          280 16 callsubr
          -114 hlineto
          -70 -14 -23 -19 -13 hvcurveto
          -7 2 rlineto
          hintmask 11011010
          111 250 -26 152 vvcurveto
          hintmask 11110110
          71 -71 27 -71 vhcurveto
          hintmask 11010101
          -108 -429 -38 callgsubr
          endchar
        </CharString>
        <CharString name="u">
          -103 callsubr
          endchar
        </CharString>
        <CharString name="uacute">
          -103 callsubr
          78 158 -106 callsubr
          endchar
        </CharString>
        <CharString name="ucircumflex">
          -103 callsubr
          -34 158 -106 callgsubr
          endchar
        </CharString>
        <CharString name="udieresis">
          17 -20 28 -32 callgsubr
          90 121 hstemhm
          106 89 -44 -13 callgsubr
          -45 89 hintmask 01111001
          hintmask 01110110
          330 611 -107 callsubr
          hintmask 10111001
          255 -166 rmoveto
          -181 vlineto
          -114 -23 -142 -114 -74 0 110 81 vhcurveto
          274 vlineto
          -99 callgsubr
          -260 hlineto
          -122 22 -83 122 67 59 43 64 22 vhcurveto
          6 hlineto
          hintmask 01111001
          -87 157 15 -66 458 vlineto
          -57 callsubr
          endchar
        </CharString>
        <CharString name="ugrave">
          -103 callsubr
          19 74 -101 callgsubr
          endchar
        </CharString>
        <CharString name="uhungarumalut">
          -582 endchar
        </CharString>
        <CharString name="underscore">
          -144 -215 21 hstem
          -26 494 vstem
          468 -194 rmoveto
          -494 -21 494 hlineto
          endchar
        </CharString>
        <CharString name="uogonek">
          17 -44 callsubr
          195 28 -32 callgsubr
          hstemhm
          106 89 211 89 -76 19 21 100 hintmask 0010111100000000
          406 445 rmoveto
          -181 vlineto
          hintmask 0011011100000000
          -114 -23 -142 -114 -74 0 110 81 vhcurveto
          274 vlineto
          -99 callgsubr
          -260 hlineto
          -122 22 -83 122 67 59 43 64 22 vhcurveto
          6 hlineto
          hintmask 0010111100000000
          -87 vlineto
          hintmask 0010111010000000
          106 -34 callsubr
          vhcurveto
          hintmask 0010111001000000
          -25 callsubr
          hvcurveto
          hintmask 0100111001000000
          -62 callgsubr
          hintmask 1000111001000000
          -73 callsubr
          vhcurveto
          hintmask 1000111010000000
          -24 callgsubr
          -43 callsubr
          hvcurveto
          hintmask 0010111100000000
          -26 callgsubr
          rrcurveto
          15 -66 458 vlineto
          -57 callsubr
          endchar
        </CharString>
        <CharString name="v">
          -77 -20 45 420 15 2 18 hstemhm
          80 91 110 108 52 18 hintmask 10110100
          298 19 callsubr
          hintmask 11010100
          61 vlineto
          -89 callsubr
          -56 hlineto
          -244 70 -165 114 105 90 179 165 vhcurveto
          hintmask 10111100
          83 -23 73 -83 -39 -33 -27 -39 -31 23 -24 32 30 22 18 29 1 vhcurveto
          23 -13 12 -15 3 vhcurveto
          -84 callgsubr
          62 17 -72 -70 vhcurveto
          hintmask 10110100
          -138 -75 -157 -68 vhcurveto
          endchar
        </CharString>
        <CharString name="w">
          217 -20 45 420 15 4 16 hstemhm
          80 91 206 91 103 108 52 18 hintmask 10111010
          595 19 callsubr
          hintmask 11011010
          61 vlineto
          -89 callsubr
          -56 hlineto
          -91 9 -80 18 -65 vhcurveto
          -73 -26 -40 -55 -40 hhcurveto
          -96 -31 221 166 hvcurveto
          61 vlineto
          -89 callsubr
          -56 hlineto
          -244 70 -165 114 61 54 61 85 34 vhcurveto
          -92 32 51 -54 65 hhcurveto
          105 83 179 165 hvcurveto
          hintmask 10111110
          83 -22 73 -84 -39 -33 -27 -39 -31 23 -24 32 30 22 18 29 1 vhcurveto
          23 -12 14 -15 3 vhcurveto
          -84 callgsubr
          62 16 -74 -70 vhcurveto
          hintmask 10111010
          -138 -68 -157 -68 vhcurveto
          endchar
        </CharString>
        <CharString name="x">
          -102 -16 17 -14 42 402 42 -14 17 hstemhm
          1 107 241 107 hintmask 10011100
          hintmask 10101100
          233 382 rmoveto
          47 -21 -36 44 -51 hhcurveto
          -45 -32 -39 -45 -9 hvcurveto
          16 -5 rlineto
          23 7 8 24 24 hhcurveto
          27 14 -28 -25 11 hvcurveto
          69 -157 rlineto
          -102 -41 -43 -118 -48 hhcurveto
          -6 -4 3 6 hvcurveto
          11 35 0 38 vvcurveto
          29 -24 19 -29 -31 -23 -25 -31 -39 32 -28 39 71 29 82 131 54 vhcurveto
          hintmask 01011100
          53 -119 rlineto
          -47 21 36 -44 51 hhcurveto
          45 32 39 45 9 hvcurveto
          -16 5 rlineto
          -23 -7 -8 -24 -24 hhcurveto
          -27 -14 28 25 -11 hvcurveto
          -99 222 rlineto
          81 33 35 74 39 hhcurveto
          6 4 -3 -6 hvcurveto
          -11 -35 0 -38 -11 callgsubr
          -59 -30 -56 -93 -39 vhcurveto
          endchar
        </CharString>
        <CharString name="y">
          -40 callgsubr
          268 -233 -95 callgsubr
        </CharString>
        <CharString name="yacute">
          -40 callgsubr
          390 -83 callsubr
          58 -752 -95 callgsubr
        </CharString>
        <CharString name="ydieresis">
          -102 -233 19 659 15 1 19 70 121 hstemhm
          75 91 -63 121 -66 18 56 107 -66 108 -99 121 36 18 hintmask 1011001001100000
          282 611 rmoveto
          -33 27 -28 34 33 27 28 33 33 -27 27 -33 -34 -27 -27 -33 vhcurveto
          hintmask 1011010001100000
          -179 hmoveto
          -33 27 -28 33 33 28 28 33 33 -28 27 -33 -33 -27 -27 -33 vhcurveto
          hintmask 1011001100100000
          165 -844 rmoveto
          39 32 30 -66 callsubr
          -15 14 -3 hvcurveto
          6 -1 3 -3 -5 vvcurveto
          -6 -4 -3 -6 -39 -42 41 70 87 86 49 63 42 vhcurveto
          84 56 48 87 106 vvcurveto
          83 -30 73 -79 vhcurveto
          hintmask 1011001010100000
          -40 -35 -27 -42 -31 23 -27 32 34 18 21 29 1 hvcurveto
          23 -12 14 -15 -45 callsubr
          7 6 2 7 9 10 -3 -2 4 vhcurveto
          42 -17 16 -60 -59 vvcurveto
          -123 -89 -99 -54 vhcurveto
          hintmask 1101100001100000
          -86 -44 133 181 hvcurveto
          61 vlineto
          -89 callsubr
          -56 hlineto
          -229 88 -108 82 -5 vhcurveto
          1 -4 rlineto
          hintmask 1011001001100000
          -51 -37 -37 -49 -63 vvcurveto
          hintmask 1011001100100000
          -74 43 -53 67 vhcurveto
          endchar
        </CharString>
        <CharString name="yen">
          -103 0 15 111 16 44 16 262 16 hstem
          193 89 91 106 vstem
          479 -22 callgsubr
          -200 -16 28 hlineto
          51 15 -9 -24 -23 -33 -57 -13 -26 hvcurveto
          -55 -106 -129 245 rlineto
          63 16 -206 -16 43 hlineto
          141 -262 rlineto
          -109 -16 118 -44 -118 -16 118 -111 -53 -15 195 15 -53 111 116 16 -116 44 116 16 -114 hlineto
          91 180 rlineto
          64 32 -2 18 74 hhcurveto
          endchar
        </CharString>
        <CharString name="z">
          -122 -20 16 26 -21 46 107 162 107 22 14 5 16 hstemhm
          52 19 350 19 hintmask 10010111
          166 -22 callgsubr
          -62 -52 -27 -66 -39 29 -32 40 30 26 23 30 29 -18 25 -30 -22 -15 -12 -14 -3 hvcurveto
          -71 callgsubr
          -4 -5 3 6 48 47 19 48 42 64 -13 -6 39 hvcurveto
          hintmask 01010111
          -276 -444 4 -7 rlineto
          4 16 25 3 18 74 60 -21 74 hhcurveto
          hintmask 10111011
          72 62 27 76 39 -29 32 -42 callgsubr
          -58 -57 -19 -58 -42 -79 13 6 -39 hvcurveto
          -1 hlineto
          277 444 -4 7 rlineto
          -4 -16 -25 -3 -18 -74 -45 21 -74 hhcurveto
          endchar
        </CharString>
        <CharString name="zero">
          -14 -20 17 466 17 hstem
          83 97 208 97 vstem
          284 -22 callgsubr
          -131 -70 -119 -131 -131 70 -119 131 131 70 119 131 131 -70 119 -131 hvcurveto
          -483 vmoveto
          -101 -3 132 101 101 3 132 101 101 3 -132 -101 -101 -3 -132 -101 hvcurveto
          endchar
        </CharString>
      <CharString index="0">
        rmoveto
        -80 -81 -33 -80 -40 29 -31 40 30 26 23 30 29 -18 25 -30 -22 -15 -12 -14 -3 hvcurveto
        -71 callgsubr
        -4 -5 3 6 30 30 53 96 98 25 -61 -98 hvcurveto
        -49 vlineto
        -133 3 -171 -12 -133 vvcurveto
        -88 76 -42 88 73 57 40 71 18 vhcurveto
        6 hlineto
        -53 6 -58 53 72 22 83 72 7 -12 callsubr
        -65 -7 -17 -50 -25 hhcurveto
        -14 -4 18 23 hvcurveto
        177 vlineto
        166 -30 74 -166 vhcurveto
        107 -313 rmoveto
        -81 -35 -78 -81 -62 -29 44 62 109 99 14 108 -3 vhcurveto
        endchar
      </CharString>
      <CharString index="1">
        rmoveto
        180 -84 7 15 -82 43 -33 45 -26 31 rlinecurve
        18 -15 -13 9 -18 hhcurveto
        -18 -13 -9 -18 -15 hvcurveto
        -26 -31 -33 -45 -82 -43 7 -15 rcurveline
        return
      </CharString>
      <CharString index="2">
        rmoveto
        186 97 162 186 182 -101 160 -182 -182 -101 -160 -182 -59 callgsubr
        hvcurveto
        19 vmoveto
        -156 -5 173 156 152 9 171 152 152 9 -171 -152 -152 -9 -177 -152 hvcurveto
        return
      </CharString>
      <CharString index="3">
        -16 hlineto
        -193 -10 -28 -36 -193 hhcurveto
        -81 315 53 hlineto
        97 29 -34 -97 hvcurveto
        17 275 -17 hlineto
        -97 -29 -31 -97 vhcurveto
        -53 287 90 hlineto
        163 35 -29 -163 hvcurveto
        16 208 -481 return
      </CharString>
      <CharString index="4">
        85 -10 43 -33 16 314 16 288 -12 callgsubr
        104 211 13 callsubr
        hintmask 01111100
        hintmask 10111100
        617 113 rmoveto
        -85 callsubr
        hintmask 01111010
        104 14 53 64 89 vvcurveto
        135 -137 7 -122 vhcurveto
        -241 -16 73 -618 -82 callsubr
        314 72 hlineto
        hintmask 10111100
        93 46 -39 -116 hvcurveto
        -66 vlineto
        -83 35 -36 45 62 38 45 74 15 vhcurveto
        hintmask 01111010
        -195 392 rmoveto
        -122 -37 -33 -110 vhcurveto
        -64 288 50 hlineto
        106 55 -15 -118 hvcurveto
        return
      </CharString>
      <CharString index="5">
        rmoveto
        142 78 108 142 142 -78 108 -142 -142 -78 -108 -142 -142 78 -108 142 hvcurveto
        123 250 rmoveto
        -111 -12 -122 -111 -111 -12 -53 callsubr
        -53 callsubr
        -122 -111 vhcurveto
        return
      </CharString>
      <CharString index="6">
        rmoveto
        7 15 -82 43 -33 45 -26 31 rlinecurve
        18 -15 -13 9 -18 hhcurveto
        -20 -14 -13 -20 -24 12 -10 22 -10 hvcurveto
        return
      </CharString>
      <CharString index="7">
        -10 -47 -44 -64 callgsubr
        -21 -15 return
      </CharString>
      <CharString index="8">
        -100 callgsubr
        71 return
      </CharString>
      <CharString index="9">
        -19 callgsubr
        6 -1 hvcurveto
        14 -3 -15 12 -22 hhcurveto
        -30 -18 -25 -29 -30 26 -23 30 40 29 31 40 return
      </CharString>
      <CharString index="10">
        rmoveto
        -74 -16 256 16 -71 hlineto
        -202 654 rlineto
        -3 hlineto
        -37 -10 -26 -35 -12 15 callsubr
        -471 rlineto
        return
      </CharString>
      <CharString index="11">
        90 214 90 vstem
        741 445 rmoveto
        -121 -75 -110 -123 -122 75 -110 121 123 75 110 122 123 -75 110 -123 hvcurveto
        -106 -233 rmoveto
        95 13 120 93 95 13 -120 -95 -94 -13 -120 -95 -93 -13 120 94 vhcurveto
        -134 369 rmoveto
        53 52 18 26 39 hvcurveto
        -368 -643 14 -9 423 737 -17 7 -9 -16 rlineto
        -27 -13 -59 -75 -115 -113 -60 91 -92 hhcurveto
        -121 -75 -110 -123 -122 75 -110 121 123 75 110 122 56 -16 54 -28 41 hvcurveto
        0 52 -27 59 vhcurveto
        -371 -124 rmoveto
        95 13 120 93 95 13 -120 -95 -94 -13 -120 -95 -93 -13 120 94 vhcurveto
        return
      </CharString>
      <CharString index="12">
        rmoveto
        39 32 30 -66 callsubr
        -15 14 -3 hvcurveto
        6 -1 3 -3 -5 vvcurveto
        -6 -4 -3 -6 -39 -42 41 70 87 86 49 63 42 vhcurveto
        84 56 48 87 106 vvcurveto
        83 -30 73 -79 vhcurveto
        hintmask 10101011
        -40 -35 -27 -42 -31 23 -27 32 34 18 21 29 1 hvcurveto
        23 -12 14 -15 -45 callsubr
        7 6 2 7 9 10 -3 -2 4 vhcurveto
        42 -17 16 -60 -59 vvcurveto
        -123 -89 -99 -54 vhcurveto
        hintmask 11010101
        -86 -44 133 181 hvcurveto
        61 vlineto
        -89 callsubr
        -56 hlineto
        -229 88 -108 82 -5 vhcurveto
        1 -4 rlineto
        hintmask 10101101
        -51 -37 -37 -49 -63 vvcurveto
        -74 43 -53 67 vhcurveto
        endchar
      </CharString>
      <CharString index="13">
        rmoveto
        -99 callgsubr
        return
      </CharString>
      <CharString index="14">
        -39 -32 -28 -39 -31 23 -25 31 29 24 19 29 22 -12 return
      </CharString>
      <CharString index="15">
        87 33 -53 -38 -37 callgsubr
        -98 callgsubr
        return
      </CharString>
      <CharString index="16">
        -25 -55 -41 -29 -27 -29 -6 -4 3 -1 callsubr
        3 6 1 hvcurveto
        14 3 12 14 22 vvcurveto
        29 -24 19 -29 -31 -23 -25 -31 -39 32 -28 39 50 37 34 52 return
      </CharString>
      <CharString index="17">
        -93 callgsubr
        13 -14 3 return
      </CharString>
      <CharString index="18">
        125 -31 callsubr
        -618 -82 callsubr
        -31 callgsubr
        -260 -16 vlineto
        return
      </CharString>
      <CharString index="19">
        vstem
        261 15 rmoveto
        -98 callsubr
        return
      </CharString>
      <CharString index="20">
        16 0 16 617 16 -15 16 hstemhm
        253 104 99 156 hintmask 10110000
        hintmask 11011000
        612 649 rmoveto
        -260 -16 8 hlineto
        52 44 -6 -52 -23 -13 -32 -13 -26 hvcurveto
        -84 -163 rlineto
        hintmask 10110000
        -160 303 rlineto
        83 16 -268 -16 73 hlineto
        179 -333 rlineto
        -285 -82 callsubr
        295 vlineto
        hintmask 11011000
        121 240 32 64 44 16 58 2 rlinecurve
        return
      </CharString>
      <CharString index="21">
        6 vlineto
        -53 25 48 -29 58 hhcurveto
        134 50 119 134 128 -49 119 -128 -68 -47 -46 -65 -23 hvcurveto
        -6 return
      </CharString>
      <CharString index="22">
        rmoveto
        -35 -27 -20 -25 -23 -20 17 25 19 9 33 67 7 vhcurveto
        11 -10 8 -16 -20 vvcurveto
        endchar
      </CharString>
      <CharString index="23">
        -6 1 -79 callgsubr
        6 return
      </CharString>
      <CharString index="24">
        5 32 26 6 6 hhcurveto
        6 hlineto
        58 20 -53 -69 hvcurveto
        -54 vlineto
        -78 41 -21 45 12 20 1 6 22 vhcurveto
        -2 12 rlineto
        -2 -7 -6 -1 -5 hhcurveto
        -25 -6 22 49 hvcurveto
        38 vlineto
        return
      </CharString>
      <CharString index="25">
        -47 35 -31 37 32 35 21 44 35 -25 22 -28 -26 return
      </CharString>
      <CharString index="26">
        50 26 50 60 hvcurveto
        -15 hlineto
        -31 -13 -20 -37 vhcurveto
        -42 -61 52 -49 hhcurveto
        return
      </CharString>
      <CharString index="27">
        vvcurveto
        -42 26 -41 49 -25 callsubr
        -62 callgsubr
        -73 callsubr
        -24 callgsubr
        -43 callsubr
        vhcurveto
        return
      </CharString>
      <CharString index="28">
        -3 -65 callgsubr
        3 return
      </CharString>
      <CharString index="29">
        rmoveto
        -7 -15 82 -43 33 -45 26 -31 rlinecurve
        -18 15 13 -9 18 hhcurveto
        18 13 9 18 15 hvcurveto
        26 31 33 45 82 43 -7 15 rcurveline
        -180 -84 rlineto
        endchar
      </CharString>
      <CharString index="30">
        -387 -6 vlineto
        -265 455 rlineto
        52 -31 -23 23 -68 hhcurveto
        -104 -15 hlineto
        42 41 -9 -37 22 hvcurveto
        return
      </CharString>
      <CharString index="31">
        273 -20 -102 callgsubr
        return
      </CharString>
      <CharString index="32">
        92 25 -43 -30 14 callsubr
        -4 -98 callgsubr
        return
      </CharString>
      <CharString index="33">
        -18 37 666 19 hstem
        126 204 321 25 vstem
        return
      </CharString>
      <CharString index="34">
        -5 -2 -3 -3 -5 0 callsubr
        4 5 return
      </CharString>
      <CharString index="35">
        95 60 68 94 19 -32 callsubr
        -73 -16 -42 -63 -74 hhcurveto
        -114 -24 114 114 112 24 112 112 return
      </CharString>
      <CharString index="36">
        -6 -1 -3 -3 -5 hhcurveto
        return
      </CharString>
      <CharString index="37">
        29 25 -25 -41 -90 -108 -26 -90 -12 hvcurveto
        435 vlineto
        -99 callgsubr
        -38 callsubr
        return
      </CharString>
      <CharString index="38">
        -92 callsubr
        hlineto
        return
      </CharString>
      <CharString index="39">
        0 16 618 16 hstem
        -20 callsubr
        return
      </CharString>
      <CharString index="40">
        39 32 28 -66 callsubr
        -13 14 -3 hvcurveto
        6 -1 3 -3 -5 vvcurveto
        -6 -4 -3 -6 -29 -29 24 41 47 38 40 41 23 vhcurveto
        -9 15 rlineto
        hintmask 11010000
        -46 -26 -42 -44 -55 vvcurveto
        return
      </CharString>
      <CharString index="41">
        15 430 15 return
      </CharString>
      <CharString index="42">
        3 5 vvcurveto
        6 4 return
      </CharString>
      <CharString index="43">
        -3 -48 hhcurveto
        return
      </CharString>
      <CharString index="44">
        19 vstem
        174 320 rmoveto
        158 4 173 158 116 40 -100 -115 17 vhcurveto
        16 234 -12 hlineto
        -22 -3 -8 -12 -23 -30 -44 9 callgsubr
        return
      </CharString>
      <CharString index="45">
        26 -17 28 -36 -24 -23 -16 -29 vhcurveto
        return
      </CharString>
      <CharString index="46">
        -16 73 -618 -73 return
      </CharString>
      <CharString index="47">
        -13 -8 -13 -4 -15 -1 -9 -52 -35 -20 -51 -15 4 -17 rcurveline
        23 6 23 9 19 13 rrcurveto
        return
      </CharString>
      <CharString index="48">
        -186 97 -162 186 return
      </CharString>
      <CharString index="49">
        -15 -16 -6 vhcurveto
        -73 callgsubr
        return
      </CharString>
      <CharString index="50">
        rlineto
        3 hlineto
        37 10 26 35 12 hvcurveto
        return
      </CharString>
      <CharString index="51">
        -81 callgsubr
        endchar
      </CharString>
      <CharString index="52">
        5 12 22 9 20 hhcurveto
        39 35 -16 -73 -55 -30 -27 -49 -50 -33 31 28 -20 callgsubr
        4 4 -3 -6 1 hvcurveto
        -10 2 10 -15 21 hhcurveto
        return
      </CharString>
      <CharString index="53">
        rmoveto
        129 -172 17 13 -119 159 119 159 -17 13 rlineto
        return
      </CharString>
      <CharString index="54">
        124 -27 81 -124 -67 -59 -43 -64 -22 vhcurveto
        -6 330 hlineto
        -89 callsubr
        -660 3 callgsubr
        return
      </CharString>
      <CharString index="55">
        -25 5 callsubr
        52 hmoveto
        465 5 callgsubr
        -27 -36 -194 hhcurveto
        -51 return
      </CharString>
      <CharString index="56">
        37 53 36 10 40 65 75 -44 80 hhcurveto
        43 26 10 36 54 hvcurveto
        return
      </CharString>
      <CharString index="57">
        -92 -20 -45 callgsubr
        return
      </CharString>
      <CharString index="58">
        134 78 91 134 9 -32 callsubr
        -116 -9 -60 -88 -116 hhcurveto
        -146 -20 171 146 hvcurveto
        endchar
      </CharString>
      <CharString index="59">
        59 16 50 20 50 vvcurveto
        54 -48 24 -73 -64 -52 -26 -55 -27 16 -26 38 26 21 19 28 17 -11 21 -27 -13 -12 return
      </CharString>
      <CharString index="60">
        88 -18 19 702 19 hstem
        -16 222 262 222 vstem
        return
      </CharString>
      <CharString index="61">
        -15 221 return
      </CharString>
      <CharString index="62">
        28 211 18 226 17 return
      </CharString>
      <CharString index="63">
        -44 35 -21 32 37 35 31 47 return
      </CharString>
      <CharString index="64">
        -61 callgsubr
        hlineto
        return
      </CharString>
      <CharString index="65">
        -40 -30 -26 -23 -30 -29 18 -25 30 22 15 12 14 3 hvcurveto
        6 1 3 3 5 hhcurveto
        4 5 -3 -6 return
      </CharString>
      <CharString index="66">
        73 25 27 49 77 hhcurveto
        16 -296 -16 17 vlineto
        68 69 -4 -68 -16 -3 -22 -6 -17 hvcurveto
        endchar
      </CharString>
      <CharString index="67">
        -102 -233 19 659 15 1 19 hstemhm
        75 91 -8 18 56 107 -66 108 58 18 hintmask 10101101
        return
      </CharString>
      <CharString index="68">
        188 rmoveto
        -122 -59 -50 -122 vhcurveto
        -47 328 23 hlineto
        132 73 -34 -122 hvcurveto
        return
      </CharString>
      <CharString index="69">
        rmoveto
        233 21 -233 hlineto
        return
      </CharString>
      <CharString index="70">
        -5 -4 -4 -5 return
      </CharString>
      <CharString index="71">
        24 -16 23 -31 -33 -27 -23 -37 -60 66 -22 44 69 74 42 72 63 -49 29 -73 -2 return
      </CharString>
      <CharString index="72">
        454 284 rmoveto
        -258 vlineto
        -12 -28 -51 -11 -33 hhcurveto
        -146 -20 171 146 return
      </CharString>
      <CharString index="73">
        59 21 45 36 63 vvcurveto
        52 -32 32 -50 vhcurveto
        return
      </CharString>
      <CharString index="74">
        rmoveto
        -34 -42 -36 -8 -36 -76 -63 44 -76 hhcurveto
        return
      </CharString>
      <CharString index="75">
        -8 -66 callgsubr
        return
      </CharString>
      <CharString index="76">
        618 83 16 return
      </CharString>
      <CharString index="77">
        151 13 -21 29 -21 704 -20 hstemhm
        -108 22 151 204 hintmask 10111000
        return
      </CharString>
      <CharString index="78">
        hlineto
        0 -16 -8 -24 -19 -24 5 15 -21 vhcurveto
        -425 -82 callsubr
        return
      </CharString>
      <CharString index="79">
        rmoveto
        -119 -159 17 -13 129 172 -129 172 -17 -13 rlineto
        return
      </CharString>
      <CharString index="80">
        -51 callsubr
        endchar
      </CharString>
      <CharString index="81">
        10 37 42 42 67 19 return
      </CharString>
      <CharString index="82">
        20 -6 15 -9 13 vhcurveto
        return
      </CharString>
      <CharString index="83">
        -11 -6 19 21 return
      </CharString>
      <CharString index="84">
        -99 callgsubr
        -660 -92 callsubr
        return
      </CharString>
      <CharString index="85">
        480 rmoveto
        return
      </CharString>
      <CharString index="86">
        -47 -35 -12 -37 -57 hvcurveto
        8 -16 rlineto
        return
      </CharString>
      <CharString index="87">
        5 4 4 5 return
      </CharString>
      <CharString index="88">
        -5 -3 3 return
      </CharString>
      <CharString index="89">
        rlineto
        -227 -15 45 hlineto
        36 26 -7 -34 3 hvcurveto
        -451 vlineto
        return
      </CharString>
      <CharString index="90">
        33 8 rmoveto
        34 34 37 43 22 43 rrcurveto
        4 -123 -97 hlineto
        return
      </CharString>
      <CharString index="91">
        45 15 -51 42 hhcurveto
        33 26 26 32 33 -26 26 -33 hvcurveto
        return
      </CharString>
      <CharString index="92">
        vstem
        125 -31 callsubr
        -618 -82 callsubr
        return
      </CharString>
      <CharString index="93">
        0 16 226 16 412 -20 return
      </CharString>
      <CharString index="94">
        121 58 121 return
      </CharString>
      <CharString index="95">
        16 1 callgsubr
        return
      </CharString>
      <CharString index="96">
        vvcurveto
        -29 24 -19 29 31 23 25 31 39 -32 28 -39 return
      </CharString>
      <CharString index="97">
        20 callgsubr
        hstemhm
        65 204 return
      </CharString>
      <CharString index="98">
        15 -66 458 hlineto
        -100 callgsubr
        return
      </CharString>
      <CharString index="99">
        -30 20 -25 35 29 21 20 26 21 -11 20 -26 -21 return
      </CharString>
      <CharString index="100">
        0 -20 -14 -29 vhcurveto
        -19 -97 -71 -82 -58 -55 rrcurveto
        return
      </CharString>
      <CharString index="101">
        675 rmoveto
        15 -13 vlineto
        -6 -6 0 -1 -5 hvcurveto
        return
      </CharString>
      <CharString index="102">
        81 hlineto
        169 34 -129 -176 hvcurveto
        endchar
      </CharString>
      <CharString index="103">
        101 -15 56 -111 5 vhcurveto
        return
      </CharString>
      <CharString index="104">
        -47 -31 -35 -37 return
      </CharString>
      <CharString index="105">
        -148 -142 return
      </CharString>
      <CharString index="106">
        -5 hhcurveto
        -6 return
      </CharString>
      <CharString index="107">
        10 245 return
      </CharString>
      <CharString index="108">
        hstemhm
        125 return
      </CharString>
      <CharString index="109">
        hlineto
        52 151 rlineto
        -22 hlineto
        -52 -151 rlineto
        return
      </CharString>
      <CharString index="110">
        -69 callsubr
        hlineto
        return
      </CharString>
      <CharString index="111">
        -3 3 5 return
      </CharString>
      <CharString index="112">
        hlineto
        18 callgsubr
        return
      </CharString>
      <CharString index="113">
        19 34 89 48 14 35 85 32 17 hstemhm
        return
      </CharString>
      <CharString index="114">
        122 61 20 hstemhm
        108 20 -3 104 return
      </CharString>
      <CharString index="115">
        rmoveto
        -193 -30 -120 -193 vhcurveto
        -61 return
      </CharString>
      <CharString index="116">
        34 -78 hhcurveto
        -176 3 callsubr
        return
      </CharString>
      <CharString index="117">
        117 hstem
        56 117 return
      </CharString>
      <CharString index="118">
        -212 19 212 vlineto
        return
      </CharString>
      <CharString index="119">
        hhcurveto
        -21 -15 71 return
      </CharString>
      <CharString index="120">
        226 21 hstem
        return
      </CharString>
      <CharString index="121">
        4 callgsubr
        vvcurveto
        return
      </CharString>
      <CharString index="122">
        19 3 19 return
      </CharString>
      <CharString index="123">
        107 33 18 return
      </CharString>
      <CharString index="124">
        703 rmoveto
        -10 -47 -44 -64 callgsubr
        return
      </CharString>
      <CharString index="125">
        0 callgsubr
        rlineto
        -16 hlineto
        -193 -10 return
      </CharString>
      <CharString index="126">
        20 295 18 hstemhm
        62 19 -3 64 return
      </CharString>
      <CharString index="127">
        37 0 19 337 19 310 19 return
      </CharString>
      <CharString index="128">
        79 -18 19 240 19 443 19 return
      </CharString>
      <CharString index="129">
        -159 -205 16 873 16 hstem
        return
      </CharString>
</ttFont>
